<?xml version="1.0" standalone="no"?>
<!DOCTYPE svg PUBLIC "-//W3C//DTD SVG 20010904//EN"
 "http://www.w3.org/TR/2001/REC-SVG-20010904/DTD/svg10.dtd">
<svg version="1.0" xmlns="http://www.w3.org/2000/svg"
 width="1362.000000pt" height="2048.000000pt" viewBox="0 0 1362.000000 2048.000000"
 preserveAspectRatio="xMidYMid meet">
<metadata>
Created by potrace 1.16, written by Peter Selinger 2001-2019
</metadata>
<g transform="translate(0.000000,2048.000000) scale(0.100000,-0.100000)"
fill="#000000" stroke="none">
<path d="M12869 20459 c-12 -10 -17 -19 -12 -19 22 0 21 -39 -1 -54 -46 -32
-116 -103 -116 -119 0 -8 -5 -19 -10 -22 -6 -4 -8 -10 -5 -15 3 -5 1 -11 -4
-14 -5 -3 -12 -31 -16 -61 -3 -30 -10 -55 -14 -55 -4 0 -8 -18 -9 -41 -1 -22
-4 -45 -8 -50 -3 -5 0 -9 6 -9 7 0 10 -6 7 -14 -3 -7 0 -19 6 -25 8 -8 8 -11
0 -11 -19 0 -24 -44 -6 -57 16 -12 16 -13 0 -13 -19 0 -24 -30 -4 -31 6 0 3
-4 -8 -9 -12 -5 -14 -9 -6 -9 12 -1 11 -4 -2 -14 -10 -6 -19 -28 -21 -47 -2
-19 -7 -43 -11 -53 -4 -9 -5 -26 -2 -37 3 -11 2 -20 -2 -20 -4 0 -8 -16 -9
-37 -2 -45 -9 -102 -23 -171 -11 -52 -14 -80 -24 -171 -3 -24 -9 -49 -15 -56
-6 -7 -10 -26 -9 -41 1 -33 -17 -159 -25 -172 -3 -5 -8 -31 -11 -58 -4 -27
-13 -78 -20 -113 -7 -35 -12 -72 -10 -83 2 -10 0 -18 -4 -18 -5 0 -11 -28 -15
-62 -14 -127 -16 -142 -23 -162 -4 -12 -7 -28 -8 -36 0 -8 -6 -35 -13 -60 -6
-25 -21 -101 -31 -170 -36 -227 -33 -212 -44 -240 -3 -8 -8 -40 -12 -70 -4
-30 -8 -64 -11 -75 -2 -11 -8 -47 -14 -80 -6 -33 -21 -127 -35 -210 -14 -82
-30 -174 -36 -203 -6 -29 -13 -69 -15 -90 -3 -20 -7 -48 -10 -62 -3 -14 -7
-36 -9 -50 -3 -14 -9 -50 -15 -80 -6 -30 -13 -71 -16 -90 -2 -19 -7 -48 -11
-65 -4 -16 -7 -34 -8 -40 0 -5 -5 -32 -10 -60 -5 -27 -8 -53 -7 -58 1 -4 -4
-38 -13 -75 -8 -37 -17 -83 -19 -102 -3 -19 -7 -44 -10 -55 -2 -11 -7 -40 -11
-65 -4 -25 -9 -54 -12 -65 -3 -11 -7 -45 -10 -75 -3 -30 -10 -60 -15 -67 -5
-7 -7 -16 -4 -22 3 -5 1 -22 -5 -38 -6 -15 -12 -44 -14 -63 -3 -34 -20 -140
-30 -190 -3 -14 -12 -65 -19 -115 -25 -160 -66 -409 -70 -430 -11 -48 -56
-283 -61 -320 -15 -92 -26 -158 -35 -200 -6 -27 -15 -84 -20 -125 -5 -41 -16
-109 -24 -150 -33 -175 -65 -358 -71 -395 -3 -23 -8 -52 -10 -65 -3 -14 -10
-54 -16 -90 -5 -36 -12 -76 -14 -90 -16 -93 -27 -173 -32 -222 -3 -32 -8 -58
-12 -58 -3 0 -6 -12 -7 -27 -1 -33 -13 -111 -20 -136 -3 -10 -7 -30 -9 -45 -2
-15 -11 -65 -20 -112 -17 -90 -34 -195 -40 -245 -4 -31 -11 -73 -46 -265 -11
-63 -23 -131 -25 -150 -2 -19 -7 -46 -11 -60 -4 -14 -7 -32 -8 -41 -1 -9 -7
-45 -14 -80 -6 -35 -13 -76 -15 -92 -3 -15 -7 -35 -10 -45 -6 -21 -12 -52 -26
-150 -6 -42 -18 -111 -25 -152 -8 -41 -17 -91 -20 -110 -8 -46 -73 -415 -82
-460 -10 -55 -10 -57 -22 -92 -6 -18 -13 -49 -16 -68 -5 -36 -6 -44 -32 -175
-9 -44 -17 -87 -18 -95 -2 -18 -15 -100 -19 -120 -11 -61 -18 -97 -32 -185 -9
-55 -21 -120 -25 -145 -5 -25 -12 -76 -15 -115 -6 -62 -17 -97 -27 -84 -86
105 -207 283 -207 303 0 47 -21 125 -41 150 -11 14 -38 31 -59 37 -23 7 -47
23 -56 38 -33 51 -131 141 -175 160 -24 10 -69 24 -99 30 -191 37 -217 45
-329 102 -64 32 -165 80 -226 105 -113 48 -207 103 -285 169 -47 39 -271 152
-355 178 -27 9 -70 19 -95 22 -51 7 -116 41 -317 165 -100 61 -166 94 -243
120 l-105 35 -89 150 c-49 83 -117 198 -152 256 -34 59 -66 122 -69 142 -8 40
-21 23 230 288 118 124 177 195 229 277 25 40 46 75 46 78 0 6 55 127 76 166
8 14 16 39 18 55 1 15 8 39 14 53 24 58 37 96 34 104 -4 14 9 47 17 42 4 -3 8
0 9 7 6 70 11 90 23 98 8 4 14 12 14 16 1 4 6 18 13 31 7 12 9 22 5 22 -4 0
-2 4 6 9 13 9 22 52 34 164 3 21 12 44 23 52 18 15 18 15 -1 9 -17 -4 -16 -3
3 8 12 8 19 18 15 23 -4 4 -3 6 2 3 6 -3 37 -1 70 4 33 5 67 10 76 12 9 1 28
12 44 24 15 12 32 22 36 22 12 0 120 73 197 133 34 27 74 68 87 92 45 77 67
250 44 355 -5 25 -11 57 -14 72 -2 15 -8 44 -14 65 -5 21 -12 56 -14 79 -3 38
-2 40 19 36 19 -3 24 1 30 24 4 16 15 36 26 45 10 9 18 24 18 33 0 16 14 20
56 17 30 -3 36 30 13 66 -25 38 -24 63 7 109 35 51 42 92 30 169 -10 67 -15
85 -27 85 -6 0 -8 -3 -6 -7 8 -14 -18 -62 -29 -55 -19 12 -58 96 -55 117 2 11
7 25 13 32 5 7 7 17 4 22 -4 5 -1 15 6 22 8 7 12 29 9 55 -2 25 4 61 13 84 18
45 63 220 71 276 3 22 8 45 11 53 2 8 -3 25 -12 39 -18 28 -29 82 -17 82 5 0
14 -5 21 -12 30 -30 53 63 28 113 -11 22 -12 38 -5 64 8 27 6 48 -7 90 -17 52
-17 57 1 117 10 35 23 69 29 77 9 12 5 13 -24 9 -21 -3 -39 0 -47 8 -17 17
-16 24 3 24 8 0 12 5 9 10 -3 6 -1 10 4 10 15 0 14 46 -1 73 -15 29 -18 80 -4
89 6 5 0 8 -14 8 -20 0 -22 2 -10 10 13 8 12 10 -3 10 -11 0 -15 5 -11 11 3 6
0 15 -7 20 -11 7 -10 9 4 9 12 0 17 8 17 29 0 17 -5 33 -10 36 -6 4 -10 3 -9
-2 5 -31 -2 -35 -24 -15 -13 12 -29 22 -36 22 -7 0 -9 5 -6 10 3 6 -3 10 -13
10 -13 0 -21 9 -24 25 -3 14 -1 25 5 25 7 0 7 4 -1 12 -7 7 -12 23 -12 38 0
14 -7 34 -15 44 -8 10 -12 23 -9 27 3 5 -6 11 -19 14 -15 4 -30 20 -41 46 -16
35 -26 44 -48 40 -5 0 -8 6 -8 14 0 11 -5 12 -26 5 -14 -6 -30 -7 -36 -4 -7 5
-8 2 -3 -6 5 -8 3 -11 -6 -8 -8 3 -24 -4 -36 -15 -13 -11 -23 -15 -23 -9 0 7
4 12 9 12 5 0 9 11 9 25 0 14 -4 25 -8 25 -4 0 -11 11 -14 25 -4 14 -11 25
-16 25 -5 0 -7 7 -3 15 3 9 -2 22 -12 29 -10 7 -16 20 -13 28 3 8 -3 25 -13
39 -10 13 -19 18 -19 12 0 -7 -8 -13 -17 -12 -11 0 -13 3 -5 6 27 11 9 20 -35
18 -27 -1 -42 0 -35 2 6 3 12 9 12 14 0 6 -4 8 -9 4 -6 -3 -8 4 -5 17 3 13 6
29 6 37 1 9 5 8 15 -5 8 -11 17 -18 21 -16 4 1 7 -4 7 -10 0 -7 7 -13 15 -14
30 -1 60 -16 60 -30 0 -8 9 -23 19 -33 11 -11 17 -22 13 -25 -3 -3 0 -6 6 -6
7 0 12 -5 12 -11 0 -6 19 -34 42 -63 23 -28 43 -53 45 -55 1 -2 10 0 20 4 13
5 14 9 5 12 -10 4 -10 8 -1 20 10 11 9 20 -2 41 -9 15 -14 36 -13 47 1 11 4
41 7 67 4 41 2 47 -16 52 -12 3 -25 0 -29 -7 -6 -9 -8 -8 -9 3 -3 55 -27 100
-54 100 -7 0 -20 9 -29 19 -10 10 -33 22 -51 25 -26 5 -33 11 -28 22 4 12 1
15 -13 12 -12 -2 -20 -13 -22 -31 -2 -15 -8 -27 -13 -27 -5 0 -9 -7 -9 -15 0
-37 -52 -2 -62 42 -6 24 11 36 32 23 7 -4 18 -3 25 3 10 9 10 14 1 19 -8 5 -7
13 2 29 12 18 11 24 -7 40 -25 24 -32 24 -24 2 7 -17 6 -17 -11 -1 -9 10 -15
22 -11 27 3 6 -4 9 -15 8 -25 -2 -25 -8 1 -36 13 -14 16 -21 8 -20 -20 3 -91
-30 -106 -50 -12 -15 -13 -15 -7 2 4 11 1 17 -9 17 -20 0 -24 -31 -14 -105 12
-86 11 -106 -4 -116 -8 -5 -15 -4 -17 1 -2 6 -8 10 -14 10 -5 0 -21 8 -34 19
-21 16 -22 20 -9 31 9 7 13 21 10 31 -4 12 1 19 14 24 14 4 17 12 14 28 -7 28
-32 57 -49 57 -7 0 -16 9 -19 20 -3 11 -10 20 -14 20 -13 0 -5 43 14 79 22 44
12 87 -26 106 -17 9 -31 27 -35 43 -8 35 -50 76 -70 68 -11 -4 -14 -17 -12
-48 3 -40 1 -43 -22 -43 -14 0 -24 -5 -23 -12 1 -6 -5 -14 -13 -17 -13 -5 -15
-1 -10 19 4 17 2 25 -6 25 -7 0 -22 12 -34 27 -20 25 -24 26 -56 16 -21 -6
-42 -7 -51 -2 -24 14 -31 -8 -13 -36 23 -36 20 -55 -9 -55 -14 0 -25 5 -25 11
0 5 -4 8 -9 5 -4 -3 -6 5 -4 18 3 12 -2 29 -9 37 -8 8 -12 21 -10 29 5 13 3
13 -11 1 -15 -12 -17 -11 -17 3 0 9 -4 16 -9 16 -5 0 -11 9 -14 20 -3 11 -1
20 3 20 5 0 8 9 7 19 0 11 -4 18 -8 15 -4 -2 -10 0 -14 6 -3 5 -13 10 -21 10
-8 0 -12 -4 -9 -10 3 -5 0 -10 -8 -10 -8 0 -18 -7 -21 -16 -3 -8 -10 -13 -16
-9 -5 3 -19 1 -31 -6 -18 -9 -21 -9 -17 2 3 8 -2 21 -10 29 -14 13 -15 12 -9
-3 4 -11 1 -17 -9 -17 -8 0 -12 -4 -9 -10 3 -5 1 -10 -4 -10 -6 0 -11 5 -11
12 0 7 -5 6 -12 -4 -17 -21 -71 -31 -64 -12 7 18 -4 18 -18 0 -24 -31 -49 -23
-72 24 -12 25 -20 48 -18 51 2 4 -3 12 -11 19 -12 10 -15 10 -15 -1 0 -11 -2
-11 -9 1 -6 8 -7 18 -4 24 4 5 1 6 -6 1 -16 -9 -61 14 -61 32 0 7 -5 13 -11
13 -6 0 -8 -7 -5 -16 3 -8 -1 -22 -9 -30 -12 -12 -15 -12 -15 -2 0 10 -2 10
-9 -1 -5 -7 -13 -11 -19 -7 -6 3 -23 1 -38 -4 -22 -9 -25 -8 -16 3 9 10 7 18
-8 34 -12 13 -20 38 -21 67 -2 25 -6 46 -11 46 -4 0 -8 8 -9 18 0 13 -2 14 -6
2 -3 -8 -9 -17 -12 -20 -4 -3 -11 -24 -17 -47 -11 -42 -2 -79 17 -68 9 6 13
-15 10 -44 -2 -8 2 -10 11 -5 7 4 5 -2 -5 -13 -22 -25 -8 -73 22 -73 18 0 75
-39 58 -40 -4 0 -3 -9 3 -19 8 -15 7 -22 -5 -28 -12 -7 -7 -15 25 -42 22 -18
40 -41 40 -51 0 -17 -4 -18 -31 -8 -48 17 -120 59 -126 74 -2 7 -11 10 -19 7
-8 -3 -14 0 -14 6 0 7 -5 17 -10 24 -6 7 -20 24 -33 38 -12 15 -35 30 -51 33
-27 7 -28 6 -15 -10 13 -17 13 -17 -12 0 -24 15 -27 15 -32 1 -4 -8 -16 -15
-28 -15 -12 0 -20 3 -16 6 3 4 -1 13 -9 21 -10 10 -25 13 -52 8 -40 -6 -44 -3
-115 76 -12 14 -28 24 -34 22 -6 -2 -15 1 -19 8 -4 7 -3 9 4 6 5 -4 17 -4 26
-1 12 5 13 10 3 32 -6 15 -16 30 -21 33 -5 4 -6 11 -3 17 4 5 -2 17 -13 27
-16 15 -24 15 -57 5 -48 -16 -61 -27 -39 -36 13 -5 14 -9 5 -20 -6 -8 -8 -14
-3 -14 5 0 0 -7 -10 -15 -11 -8 -15 -15 -9 -15 6 0 10 -8 9 -17 -2 -10 5 -25
16 -35 14 -12 15 -17 6 -21 -10 -4 -10 -6 0 -6 8 -1 26 -11 40 -23 15 -12 19
-18 10 -15 -10 4 -18 2 -18 -3 0 -6 -5 -10 -11 -10 -6 0 -8 9 -4 21 5 14 3 19
-3 15 -6 -4 -18 4 -27 18 -11 16 -23 23 -33 19 -12 -3 -13 -2 -5 4 16 11 -10
53 -33 53 -8 0 -12 5 -9 10 3 6 1 10 -5 10 -6 0 -10 -6 -9 -12 3 -31 -14 -58
-37 -58 -14 0 -24 6 -24 15 0 8 -10 23 -22 34 -21 20 -38 20 -38 0 0 -6 5 -7
12 -3 7 4 8 3 4 -4 -4 -7 -1 -12 9 -12 9 0 13 -4 10 -10 -8 -13 -74 31 -68 46
12 32 -146 50 -191 21 -22 -15 -59 -15 -88 -2 -11 4 -18 3 -18 -4 0 -17 -21
-13 -36 7 -13 16 -13 16 -14 0 0 -10 -5 -18 -11 -18 -6 0 -9 -6 -6 -14 3 -8
-1 -20 -9 -26 -8 -7 -14 -17 -14 -23 0 -5 -8 -16 -17 -23 -10 -7 -13 -14 -7
-14 19 0 -4 -81 -29 -105 -27 -25 -68 -27 -85 -3 -7 10 -18 15 -24 12 -7 -4
-8 -2 -4 4 4 7 4 12 -1 12 -4 0 -8 23 -8 52 0 28 -5 53 -10 54 -6 2 -23 -16
-39 -39 -29 -41 -29 -41 -39 -19 -7 16 -17 22 -29 19 -10 -3 -16 -1 -12 4 3 5
-3 9 -13 10 -10 0 -13 2 -8 5 6 2 9 24 7 47 -4 44 -4 44 27 39 24 -3 31 0 31
12 0 9 -8 16 -19 16 -11 0 -21 5 -23 12 -3 8 -23 -2 -57 -26 -32 -24 -50 -44
-47 -52 3 -9 -2 -14 -13 -14 -10 0 -35 -13 -56 -30 -36 -29 -49 -34 -69 -31
-5 1 -6 -5 -3 -13 5 -12 0 -15 -16 -13 -12 1 -24 5 -27 9 -12 15 -233 -101
-227 -120 4 -13 -81 -92 -99 -92 -14 0 -78 -59 -86 -80 -3 -7 -65 -49 -122
-83 -41 -25 -96 -78 -96 -93 0 -39 78 -2 151 72 36 36 50 25 42 -33 -4 -30 -3
-44 4 -40 6 4 8 -4 6 -21 -4 -21 -2 -24 6 -12 9 13 11 13 11 -1 0 -9 -9 -19
-20 -22 -11 -3 -18 -1 -14 4 3 5 -2 9 -10 9 -9 0 -16 -7 -16 -15 0 -8 5 -15
10 -15 6 0 10 -8 10 -17 1 -14 4 -12 15 7 l14 25 1 -26 c0 -19 -6 -28 -21 -32
-25 -7 -51 2 -43 14 3 5 -2 9 -10 9 -10 0 -13 6 -9 17 5 13 2 15 -11 10 -10
-4 -22 -7 -27 -7 -5 0 -9 -7 -9 -15 0 -8 -9 -15 -20 -15 -11 0 -20 -6 -20 -14
0 -19 20 -32 21 -14 0 7 7 0 14 -17 13 -29 3 -61 -15 -50 -4 2 -16 -4 -26 -14
-22 -20 -46 -17 -37 5 3 8 0 14 -7 14 -6 0 -23 9 -37 20 -14 11 -35 20 -47 20
-12 0 -26 4 -32 8 -5 5 -21 13 -36 20 -23 9 -26 9 -21 -3 3 -8 11 -15 18 -15
17 0 29 -49 15 -65 -6 -8 -9 -28 -5 -47 5 -26 1 -42 -19 -71 -28 -40 -34 -77
-13 -77 8 0 7 -3 -3 -9 -8 -6 -18 -7 -22 -5 -4 3 -8 0 -8 -5 0 -6 -7 -11 -15
-11 -9 0 -18 -6 -21 -14 -3 -8 -20 -20 -37 -27 -40 -17 -123 -97 -136 -132
-13 -34 -11 -34 30 3 19 16 38 30 43 30 5 0 16 8 25 18 42 46 117 83 133 66 8
-7 -28 -65 -68 -112 -18 -21 -39 -54 -48 -76 -17 -40 -22 -106 -8 -106 9 0 43
55 41 67 -6 34 42 110 62 97 5 -3 8 -30 6 -61 -4 -48 -2 -56 14 -60 42 -11 13
-93 -32 -93 -12 0 -17 -4 -13 -11 5 -8 2 -9 -11 -1 -15 8 -23 4 -43 -19 -23
-28 -24 -32 -12 -77 11 -45 11 -47 -16 -69 -21 -16 -30 -19 -36 -10 -6 9 -13
6 -26 -10 -16 -21 -82 -42 -82 -26 0 11 -49 33 -72 33 -10 0 -18 5 -18 10 0
13 -27 13 -32 0 -2 -6 -13 -12 -25 -14 -24 -5 -34 12 -35 64 -2 56 -50 49 -98
-16 -30 -40 -50 -51 -45 -23 2 11 -2 19 -9 19 -13 0 -36 -61 -36 -94 0 -9 -5
-16 -10 -16 -19 0 -32 -52 -21 -78 6 -13 16 -20 21 -17 6 4 9 3 8 -2 -2 -5 9
-21 24 -36 27 -26 27 -29 12 -52 -9 -13 -24 -27 -34 -30 -16 -5 -30 -25 -29
-41 0 -4 -5 -11 -13 -15 -11 -8 -11 -11 1 -18 8 -5 12 -18 8 -30 -4 -15 0 -21
11 -22 11 0 12 -2 5 -6 -7 -2 -13 -13 -13 -24 0 -10 6 -19 13 -20 6 0 2 -4
-11 -9 -12 -5 -29 -7 -37 -4 -11 5 -17 -3 -21 -24 -9 -46 -30 -47 -48 -1 -9
22 -16 48 -16 59 0 10 -4 22 -10 25 -15 10 -12 -63 6 -130 9 -33 19 -74 24
-90 11 -47 112 -185 135 -185 10 0 5 39 -6 45 -20 13 -27 49 -12 63 8 8 15 13
17 11 1 -2 13 -20 26 -39 13 -19 27 -37 30 -40 3 -3 10 -14 16 -25 6 -11 20
-21 30 -23 14 -2 16 -1 6 6 -19 13 -42 61 -42 87 0 15 8 25 23 29 12 3 24 1
25 -4 2 -6 8 -10 13 -10 5 0 4 11 -3 25 -17 37 4 55 63 55 53 0 67 -17 51 -61
-5 -13 -7 -30 -5 -36 6 -17 -16 -83 -28 -83 -5 0 -9 -7 -9 -15 0 -8 -14 -30
-31 -50 -26 -29 -38 -35 -68 -34 -53 2 -98 18 -105 36 -6 14 -10 13 -31 -7
-40 -37 -33 -69 24 -114 46 -37 48 -40 40 -73 -4 -19 -16 -41 -28 -49 -11 -8
-27 -21 -35 -29 -8 -8 -18 -15 -23 -15 -4 0 -19 -9 -33 -19 -23 -18 -24 -22
-12 -55 7 -20 15 -56 18 -81 2 -25 11 -59 19 -75 8 -16 15 -35 15 -42 0 -7 7
-26 16 -43 9 -16 16 -45 15 -63 -2 -45 7 -72 25 -72 8 0 12 -5 9 -11 -4 -6 2
-13 14 -16 11 -3 23 -14 26 -24 4 -10 10 -19 15 -19 5 0 11 -8 14 -18 3 -10
21 -34 40 -54 22 -23 41 -60 56 -107 12 -40 28 -75 36 -78 8 -3 11 -9 8 -14
-3 -5 0 -9 5 -9 6 0 11 -9 11 -20 0 -24 -31 -90 -42 -90 -4 0 -8 -7 -8 -15 0
-8 8 -15 19 -15 22 0 45 -25 37 -39 -7 -10 -1 -16 45 -51 41 -30 29 -62 -32
-85 -27 -11 -48 -24 -46 -30 2 -5 23 -17 48 -25 24 -8 54 -21 66 -27 12 -7 32
-13 44 -13 12 0 30 -7 39 -15 12 -11 41 -16 88 -18 39 -1 74 -6 79 -11 4 -4
-5 -18 -22 -30 -16 -11 -42 -34 -57 -51 -16 -16 -33 -31 -38 -31 -6 -1 -17 -2
-25 -3 -17 -1 -10 -14 32 -53 16 -15 20 -28 16 -53 -11 -69 48 -124 141 -134
33 -4 75 -14 92 -22 25 -13 44 -14 94 -8 34 5 67 6 72 3 6 -4 8 -27 4 -57 -6
-59 4 -77 45 -77 15 0 31 -4 34 -10 3 -5 13 -10 22 -10 13 0 14 12 9 78 -3 42
-10 102 -15 132 -5 30 -10 69 -10 85 0 66 -9 164 -15 174 -4 6 -2 11 5 11 8 0
8 4 1 13 -6 7 -10 26 -8 42 2 17 4 36 5 43 0 6 9 12 19 12 14 0 15 -2 2 -10
-13 -8 -12 -10 3 -10 10 0 17 7 17 18 0 11 -8 17 -24 17 -13 0 -22 -3 -19 -7
2 -5 -10 -8 -27 -8 -24 0 -35 -7 -48 -30 -9 -16 -21 -30 -25 -30 -5 0 -6 -4
-3 -9 3 -5 -16 -12 -42 -16 -26 -4 -55 -11 -64 -16 -22 -12 -66 5 -96 37 -13
13 -20 24 -15 24 4 0 -1 6 -10 13 -22 17 -80 137 -110 229 -31 94 -44 160 -57
297 -6 58 -12 117 -15 131 -9 39 -13 152 -8 168 6 13 11 3 42 -72 14 -35 27
-26 51 36 9 24 36 73 61 111 42 64 69 82 85 56 11 -18 14 -79 3 -79 -5 0 -9
-9 -9 -20 0 -11 -4 -20 -8 -20 -9 0 -16 -13 -47 -83 -19 -43 -27 -142 -14
-167 4 -8 10 -27 13 -41 6 -29 50 -82 83 -98 12 -6 36 -11 53 -11 27 0 33 -5
46 -37 30 -76 36 -83 76 -89 47 -8 83 -47 68 -74 -6 -12 -3 -28 10 -52 10 -20
16 -39 13 -42 -4 -3 1 -6 10 -6 10 0 18 8 18 18 1 9 3 27 4 40 1 13 -3 29 -9
35 -11 12 -17 42 -16 89 0 15 -4 29 -10 33 -6 4 -7 -1 -3 -12 6 -14 2 -13 -23
6 -76 60 -144 133 -144 156 0 32 49 112 72 118 12 4 24 4 26 2 2 -2 6 -30 7
-62 5 -72 15 -123 25 -123 22 0 40 14 40 32 0 10 10 42 21 69 17 39 26 49 45
49 19 0 23 4 20 23 -3 12 -5 29 -5 37 -1 13 -2 13 -11 0 -8 -11 -9 -7 -4 15 4
17 11 33 17 36 5 4 6 12 2 19 -5 9 -4 11 3 6 8 -4 13 1 14 13 0 12 1 27 2 34
1 6 3 14 6 17 8 7 33 63 36 79 10 51 28 118 34 126 4 6 14 36 21 68 7 32 16
60 21 63 4 3 8 14 8 25 0 11 5 17 10 14 6 -3 10 1 10 9 0 9 5 16 10 16 10 0
87 75 124 122 10 12 26 31 34 40 8 10 16 33 17 50 3 41 14 78 24 78 8 0 11 18
11 58 0 12 4 22 9 22 12 0 -7 93 -22 102 -6 4 -8 8 -3 8 5 0 3 7 -4 15 -9 11
-8 19 4 37 9 12 16 19 16 15 0 -4 10 -2 23 5 23 13 48 12 57 -2 3 -4 21 -9 40
-10 58 -5 73 -1 66 15 -6 16 6 58 35 122 10 24 19 47 19 53 0 5 5 10 10 10 6
0 10 5 10 11 0 6 18 49 40 95 22 47 40 87 40 90 0 3 6 20 14 37 25 57 40 217
20 217 -18 0 -27 32 -12 42 10 6 10 10 -2 17 -8 5 -18 7 -23 4 -5 -3 -4 4 2
16 7 11 17 21 24 21 7 0 6 -4 -3 -10 -13 -8 -12 -10 3 -10 10 0 20 -7 23 -15
4 -8 12 -15 20 -15 7 0 17 -7 22 -16 7 -13 11 -14 17 -4 4 7 2 16 -5 20 -8 5
-7 9 6 14 16 6 16 8 4 16 -8 6 -10 10 -5 11 60 8 67 6 98 -20 35 -30 87 -49
87 -31 0 6 5 8 10 5 6 -4 7 -11 4 -17 -4 -6 -2 -8 4 -4 21 13 71 13 76 0 3 -7
13 -11 23 -10 10 2 30 0 46 -5 15 -4 27 -4 27 1 0 14 27 19 28 4 1 -8 3 -21 4
-29 1 -8 8 -15 15 -15 8 0 11 5 8 10 -3 6 -1 10 4 10 6 0 10 5 9 11 -2 6 6 16
17 22 29 17 34 28 25 53 -9 22 -4 34 12 34 4 0 8 -7 8 -16 0 -19 24 -13 26 7
1 8 3 17 4 22 1 4 3 12 4 17 0 6 8 15 16 20 10 7 11 10 3 10 -7 0 -13 5 -13
10 0 6 14 10 30 10 19 0 30 5 30 14 0 16 27 29 41 20 5 -3 9 -12 9 -20 0 -8 5
-14 10 -14 6 0 10 4 10 10 0 5 7 7 16 3 13 -5 13 -8 2 -15 -9 -6 -6 -7 10 -3
13 4 30 1 39 -6 8 -7 25 -18 37 -24 11 -7 20 -17 18 -23 -1 -7 4 -12 12 -12 8
0 18 -4 21 -10 3 -6 -1 -7 -9 -4 -13 5 -14 2 -6 -22 6 -16 19 -40 29 -54 17
-21 22 -23 44 -13 20 10 24 9 23 -4 0 -9 7 -17 17 -18 9 -2 17 1 17 6 0 4 7 6
15 3 8 -4 13 -10 10 -14 -5 -8 42 -25 58 -22 4 1 7 -2 7 -8 0 -5 9 -10 20 -10
11 0 23 -7 27 -16 4 -11 8 -12 13 -4 6 9 13 9 29 1 12 -7 19 -16 16 -22 -4 -5
-1 -9 4 -9 6 0 11 5 11 11 0 7 13 -2 29 -19 19 -19 32 -26 35 -19 2 7 5 4 5
-6 1 -13 6 -17 20 -12 11 3 22 1 26 -5 3 -6 11 -8 16 -5 5 4 9 2 9 -3 0 -5 14
-8 30 -6 20 2 30 -1 30 -10 0 -8 7 -17 16 -20 10 -4 13 -2 8 7 -6 9 -4 9 7 1
8 -6 34 -12 59 -13 25 -1 49 -7 55 -12 5 -5 16 -9 25 -9 28 0 89 -21 103 -35
8 -7 29 -15 48 -17 22 -2 33 -8 31 -16 -2 -10 4 -11 19 -7 12 4 19 3 16 -2 -3
-5 11 -9 31 -9 20 0 56 -4 80 -7 34 -6 42 -5 37 5 -4 7 2 2 13 -11 11 -13 24
-21 31 -17 6 4 11 2 11 -3 0 -6 7 -11 15 -11 8 0 22 -9 32 -19 10 -11 31 -22
46 -25 15 -2 39 -13 55 -24 15 -11 36 -22 48 -26 11 -3 30 -15 41 -25 11 -10
35 -27 53 -37 47 -27 62 -36 95 -60 31 -23 35 -24 61 -24 8 0 12 -4 9 -10 -3
-5 1 -10 9 -10 9 0 16 -5 16 -11 0 -5 4 -8 9 -5 13 8 42 -4 35 -15 -3 -5 2 -6
10 -3 9 3 16 1 16 -4 0 -6 7 -17 15 -26 9 -9 11 -17 5 -21 -5 -3 -10 -1 -10 4
0 18 -20 13 -27 -6 -15 -38 -40 -53 -91 -57 -28 -1 -53 2 -55 7 -1 5 -37 11
-79 13 -41 2 -88 8 -103 14 -15 6 -30 8 -33 5 -3 -2 -11 0 -19 6 -7 7 -13 7
-13 2 0 -13 -53 -3 -62 11 -5 7 -8 6 -8 -3 0 -10 -3 -11 -14 -2 -11 10 -15 8
-19 -6 -4 -16 -5 -16 -6 -1 -1 21 -67 36 -83 20 -11 -11 -58 4 -58 19 0 9 -20
6 -39 -6 -10 -5 -16 -4 -19 3 -2 7 -8 12 -14 12 -6 0 -3 -9 7 -20 14 -15 15
-20 4 -20 -8 0 -21 5 -29 10 -11 7 -17 5 -22 -8 -5 -13 -7 -11 -7 8 -1 20 -3
22 -11 10 -8 -13 -10 -12 -10 3 0 9 -5 17 -11 17 -6 0 -8 -9 -4 -20 5 -15 2
-20 -10 -20 -12 0 -16 6 -12 19 3 12 -1 22 -10 25 -11 5 -13 1 -7 -17 3 -12
10 -27 15 -33 5 -6 6 -14 2 -18 -4 -4 -15 8 -25 26 -9 18 -17 27 -18 20 0 -7
5 -22 10 -33 7 -13 7 -19 0 -19 -5 0 -10 7 -10 15 0 8 -5 15 -11 15 -6 0 -9 7
-5 15 3 9 0 15 -10 15 -8 0 -17 7 -20 15 -5 12 -9 13 -21 4 -20 -17 -71 -19
-87 -4 -16 16 -47 22 -63 12 -9 -6 -11 -3 -6 9 5 14 2 16 -20 12 -19 -4 -27
-1 -27 8 0 17 -12 18 -29 2 -11 -11 -12 -10 -6 2 6 10 2 9 -12 -3 -15 -13 -23
-15 -28 -7 -4 7 -1 16 6 21 8 5 9 9 4 9 -6 0 -17 -6 -24 -12 -10 -11 -11 -10
-6 3 8 21 -25 35 -37 17 -6 -11 -10 -10 -17 0 -6 11 -10 10 -15 -3 -5 -14 -9
-15 -21 -5 -8 6 -18 9 -23 6 -4 -3 -14 3 -21 13 -8 11 -21 16 -32 14 -12 -3
-19 0 -19 8 0 11 -2 11 -10 -1 -5 -8 -10 -10 -10 -4 0 7 -15 15 -33 18 -18 3
-50 16 -72 27 -21 12 -51 23 -65 25 -36 6 -82 13 -105 16 -11 2 -25 9 -30 16
-6 7 -27 13 -48 14 -21 1 -40 5 -42 9 -3 4 -14 5 -25 2 -11 -3 -26 -1 -33 5
-12 10 -112 25 -156 23 -13 -1 -30 4 -36 9 -12 10 -21 8 -110 -26 -11 -4 -23
-8 -27 -8 -4 -1 -22 -15 -40 -32 -18 -17 -43 -34 -54 -38 -12 -4 -29 -15 -39
-26 -10 -11 -24 -20 -31 -20 -14 0 -126 -90 -161 -130 -23 -25 -25 -59 -7
-117 5 -19 8 -20 20 -9 11 12 61 15 104 7 3 -1 11 -14 18 -30 10 -23 18 -28
35 -24 22 5 22 5 2 -11 -11 -10 -14 -14 -6 -11 9 5 8 -1 -4 -19 -10 -14 -23
-26 -31 -26 -7 0 -25 -12 -41 -26 -22 -21 -25 -27 -13 -34 12 -8 12 -10 -4
-10 -14 0 -17 -5 -13 -21 4 -13 -1 -28 -10 -38 -15 -15 -16 -14 -11 7 4 12 2
22 -4 22 -6 0 -8 -12 -5 -30 4 -16 2 -32 -2 -35 -5 -3 -12 -23 -16 -45 -4 -22
-11 -40 -16 -40 -5 0 -9 -7 -9 -16 0 -8 4 -13 9 -9 5 3 12 -4 16 -15 5 -15 12
-19 28 -15 22 6 47 7 80 3 10 -1 17 -10 17 -22 0 -19 1 -19 13 -2 7 10 20 17
28 15 7 -1 37 1 66 5 66 10 95 1 92 -27 -3 -28 10 -67 22 -67 6 0 -2 -11 -16
-25 -14 -14 -25 -28 -25 -31 0 -16 45 -62 56 -57 10 4 12 0 8 -11 -4 -9 -1
-16 6 -16 9 0 11 -12 7 -42 -5 -32 -4 -37 3 -20 5 12 15 22 21 22 7 0 9 -3 6
-7 -4 -3 6 -16 21 -27 19 -15 27 -29 26 -49 -1 -20 6 -33 22 -44 13 -8 24 -21
24 -29 0 -8 6 -11 18 -7 11 4 9 -1 -8 -16 -14 -12 -20 -20 -14 -17 6 3 23 7
38 10 22 4 25 2 17 -8 -9 -11 -2 -13 33 -12 25 1 48 5 52 9 4 4 21 7 39 7 17
0 37 6 44 13 11 10 13 10 7 0 -9 -17 9 -17 22 0 6 7 27 19 47 27 19 7 35 17
35 22 0 4 7 8 15 8 15 0 44 14 75 35 8 6 32 17 54 24 21 7 46 20 56 30 34 32
65 56 71 54 3 -1 4 9 1 22 -2 15 0 25 7 25 7 0 9 5 6 10 -3 6 -2 10 3 10 5 0
8 11 7 25 -2 14 1 27 6 31 5 3 9 14 9 25 0 11 5 17 10 14 6 -3 10 3 10 14 0
10 3 21 8 23 22 10 52 105 61 191 1 5 6 5 11 2 6 -3 18 2 28 11 16 17 16 18
-1 11 -13 -5 -17 -3 -14 5 2 7 14 12 27 10 14 -2 20 0 16 7 -5 7 3 9 24 5 19
-4 30 -2 30 5 0 6 9 11 20 11 11 0 20 4 20 9 0 13 53 9 62 -4 4 -6 8 -2 8 8 0
17 1 17 16 3 8 -9 16 -24 17 -35 1 -12 7 -18 18 -16 10 2 20 -3 23 -11 3 -8 0
-14 -7 -15 -7 0 -1 -5 13 -11 15 -6 20 -12 13 -15 -19 -7 -16 -31 6 -43 17 -9
21 -5 32 27 11 34 13 35 20 16 4 -12 15 -26 25 -31 10 -6 15 -16 11 -26 -4 -9
-2 -16 3 -16 10 0 9 -20 -3 -50 -14 -39 -14 -70 1 -70 13 0 13 -2 -2 -13 -13
-10 -18 -31 -20 -102 -2 -50 1 -95 6 -102 5 -7 5 -13 0 -17 -5 -3 -6 -23 -2
-45 5 -29 4 -41 -6 -45 -8 -3 -10 -13 -6 -28 l6 -23 7 25 c4 16 7 19 8 8 1
-10 5 -18 10 -18 6 0 6 -13 -1 -32 -9 -26 -8 -33 5 -43 9 -7 14 -15 10 -19 -4
-3 -7 -20 -8 -36 -1 -24 3 -30 19 -30 12 0 28 -5 36 -11 13 -9 13 -10 -1 -6
-9 3 -22 1 -30 -4 -10 -6 -8 -9 11 -9 19 0 21 -3 11 -9 -21 -14 -23 -41 -3
-34 16 4 16 4 1 -9 -19 -15 -3 -38 20 -30 8 3 11 0 7 -6 -4 -6 1 -24 11 -39
10 -15 12 -24 6 -20 -18 12 -16 -4 2 -17 13 -10 21 -43 27 -113 1 -7 5 -13 9
-13 4 0 5 -10 1 -22 -3 -14 -2 -19 6 -14 8 5 12 0 12 -13 0 -12 11 -43 24 -70
18 -39 22 -57 16 -87 -4 -22 -8 -29 -9 -16 0 12 -5 22 -11 22 -5 0 -10 7 -10
16 0 9 -5 12 -12 8 -7 -5 -9 -2 -5 9 8 22 -14 37 -48 32 -17 -2 -39 -4 -49 -4
-11 -1 -16 -4 -13 -8 4 -3 2 -12 -4 -20 -9 -10 -15 -11 -26 -2 -11 9 -17 9
-26 -1 -10 -10 -9 -11 2 -5 10 5 12 4 7 -4 -4 -6 -11 -9 -16 -6 -5 3 -12 0
-15 -6 -5 -7 -12 -3 -22 10 -8 12 -19 19 -24 15 -6 -3 -16 2 -24 12 -11 15
-15 16 -28 5 -9 -7 -22 -9 -28 -5 -8 5 -10 2 -7 -7 4 -11 -3 -16 -25 -17 -17
-2 -36 -7 -42 -12 -7 -5 -16 -6 -21 -2 -4 4 -2 -2 6 -12 14 -18 13 -19 -8 -13
-13 3 -22 3 -19 0 3 -3 -8 -18 -25 -33 -17 -16 -28 -32 -25 -37 4 -5 0 -10 -8
-10 -8 0 -15 10 -15 21 0 17 -2 18 -10 6 -8 -12 -10 -11 -10 8 0 14 -6 22 -17
22 -13 0 -14 3 -5 8 9 6 4 17 -17 41 -22 25 -38 33 -65 34 -20 1 -36 5 -36 9
0 12 -43 5 -58 -9 -7 -7 -21 -13 -30 -13 -9 0 -37 -18 -62 -40 -25 -22 -50
-45 -57 -50 -7 -6 -19 -3 -35 10 -22 17 -34 52 -53 153 -2 10 4 42 12 72 14
50 14 58 0 87 -9 18 -17 27 -17 21 0 -7 -4 -13 -10 -13 -5 0 -7 7 -4 15 7 16
-11 21 -20 6 -10 -15 -39 -6 -46 14 -5 13 -9 15 -14 7 -4 -7 -5 -16 -2 -21 7
-10 -52 -34 -64 -26 -5 3 -6 -5 -3 -17 3 -15 2 -19 -4 -11 -14 20 -84 -32 -76
-55 6 -15 5 -15 -12 2 -18 18 -19 18 -32 0 -7 -10 -13 -14 -14 -8 0 5 -5 -2
-10 -16 -8 -20 -12 -22 -19 -10 -7 12 -12 12 -22 2 -6 -6 -20 -12 -29 -12 -10
0 -30 -5 -46 -12 -15 -6 -37 -10 -47 -9 -15 2 -18 -2 -13 -19 4 -17 3 -19 -9
-9 -12 10 -13 6 -8 -21 l7 -32 -42 4 c-22 2 -41 0 -41 -4 0 -5 -7 -8 -15 -8
-8 0 -15 6 -15 13 0 8 -3 7 -10 -3 -5 -8 -5 -19 0 -25 5 -6 8 -21 7 -33 -1
-16 -6 -21 -19 -16 -10 3 -18 0 -18 -6 0 -6 5 -8 10 -5 6 3 10 1 10 -4 0 -6
-5 -11 -11 -11 -6 0 -9 -7 -5 -15 3 -8 1 -15 -4 -15 -6 0 -10 7 -10 15 0 8 -7
15 -15 15 -8 0 -15 -9 -15 -20 0 -11 -4 -20 -10 -20 -13 0 -13 37 0 45 13 8 1
35 -16 35 -8 0 -14 -5 -14 -11 0 -6 -6 -9 -13 -6 -9 3 -13 -5 -12 -24 0 -22 7
-33 30 -44 l30 -16 -31 6 c-26 5 -35 1 -55 -24 -13 -17 -29 -31 -36 -31 -7 0
-10 -7 -6 -16 5 -13 7 -13 14 -2 5 7 9 8 9 3 0 -6 -5 -16 -12 -23 -9 -9 -9
-12 3 -12 9 0 14 -11 14 -30 1 -16 -3 -30 -7 -30 -5 0 -16 -16 -25 -35 -9 -19
-20 -32 -25 -29 -4 3 -8 0 -8 -5 0 -6 5 -11 10 -11 6 0 10 -6 8 -12 -3 -20 12
-58 23 -58 6 0 -3 -11 -18 -25 -17 -15 -21 -23 -10 -19 18 7 24 -11 7 -21 -8
-5 -8 -11 0 -20 8 -9 6 -17 -7 -30 -18 -19 -28 -125 -11 -125 4 0 8 -5 8 -11
0 -7 -10 -9 -25 -7 -20 4 -23 2 -14 -8 6 -7 16 -11 24 -8 7 3 16 0 21 -7 5 -8
3 -10 -5 -4 -8 4 -25 -1 -41 -14 -21 -15 -30 -17 -34 -8 -5 9 -7 9 -12 -1 -3
-6 -11 -9 -16 -6 -7 4 -8 2 -4 -4 4 -6 13 -9 20 -6 9 3 18 -6 24 -25 8 -22 17
-31 33 -31 18 0 20 2 9 15 -11 13 -15 13 -21 3 -6 -9 -9 -9 -9 -1 0 21 17 23
34 4 14 -15 14 -20 3 -29 -8 -7 -18 -8 -22 -4 -5 4 -5 1 -1 -6 9 -15 44 1 53
24 3 8 10 14 15 14 6 0 5 -6 -2 -15 -11 -13 -9 -15 10 -13 13 2 25 -2 27 -9 3
-8 -4 -9 -24 -4 -19 5 -35 3 -50 -7 -13 -8 -29 -12 -37 -9 -10 4 -13 1 -9 -8
3 -8 9 -12 14 -9 5 3 9 -2 9 -10 0 -9 4 -16 9 -16 13 0 32 26 24 33 -3 4 5 7
18 7 21 -1 22 -2 7 -11 -10 -5 -22 -18 -28 -28 -8 -16 -7 -18 10 -14 27 7 25
-9 -2 -26 -20 -12 -20 -15 -5 -25 16 -13 18 -39 2 -53 -4 -4 -5 -2 -1 5 4 6 2
12 -5 12 -6 0 -9 -8 -6 -19 3 -13 0 -18 -8 -15 -7 3 -15 -2 -19 -11 -3 -10 -1
-15 7 -13 7 2 14 -1 15 -7 1 -5 -2 -11 -8 -11 -23 -3 -24 -5 -10 -15 13 -9 13
-10 0 -6 -9 2 -15 15 -15 34 1 21 -3 29 -12 26 -7 -3 -11 -9 -8 -13 9 -14 -21
-26 -93 -37 -25 -4 -37 -1 -47 13 -13 17 -14 17 -15 2 0 -12 -6 -15 -23 -10
-21 5 -21 5 -5 -12 10 -10 18 -24 18 -32 0 -8 4 -13 8 -10 5 3 6 -8 4 -25 -4
-25 -2 -28 14 -22 10 4 13 8 8 10 -6 2 -8 17 -6 33 3 24 1 30 -14 30 -14 0
-16 2 -5 13 10 10 16 7 30 -12 10 -13 23 -21 29 -17 6 4 8 -2 4 -16 -3 -12 -7
-17 -10 -10 -6 20 -21 4 -15 -18 4 -16 11 -19 27 -14 20 6 20 5 -3 -15 -13
-11 -19 -21 -13 -21 7 0 12 -5 12 -12 0 -6 -9 -3 -20 7 -12 11 -20 13 -20 6 0
-8 -5 -9 -19 -2 -10 6 -21 8 -24 5 -3 -3 -16 0 -29 7 -12 7 -30 12 -37 10 -13
-2 -13 0 -1 16 8 10 10 15 5 10 -14 -12 -43 22 -38 44 4 15 0 22 -17 26 -16 4
-18 8 -8 14 10 7 9 9 -4 9 -10 0 -22 9 -28 20 -9 16 -15 18 -37 9 -14 -5 -29
-6 -32 -2 -3 4 -12 8 -18 9 -29 2 -32 5 -27 19 4 8 1 15 -5 15 -19 0 -12 17
10 23 11 3 23 15 26 26 3 12 10 18 17 14 6 -4 5 1 -3 10 -8 10 -11 20 -8 24 3
3 0 18 -8 34 -19 36 -19 40 1 32 9 -3 4 6 -10 21 -15 14 -32 26 -39 26 -9 0
-9 -2 -1 -8 17 -11 26 -49 14 -57 -5 -3 -10 -1 -10 5 0 7 -7 10 -15 6 -8 -3
-15 -1 -15 4 0 6 3 10 8 10 4 0 8 14 8 30 1 17 -2 30 -7 30 -5 0 -9 -6 -9 -12
0 -7 -8 -1 -18 15 -9 15 -20 27 -25 27 -4 0 -6 4 -2 9 3 5 -4 12 -15 16 -11 3
-20 13 -20 21 0 17 -30 19 -30 2 -1 -8 -6 -6 -14 5 -8 11 -17 14 -20 8 -4 -5
-2 -12 3 -15 5 -3 7 -24 4 -45 -5 -33 -2 -40 16 -46 21 -6 29 -25 11 -25 -5 0
-10 -5 -10 -11 0 -8 4 -9 13 0 8 6 17 8 20 5 3 -3 12 -2 19 2 22 14 38 13 38
-2 0 -8 -3 -13 -7 -12 -18 5 -53 -14 -46 -25 4 -7 -1 -6 -10 2 -13 11 -20 11
-32 1 -12 -10 -12 -15 3 -38 9 -14 16 -27 15 -29 -9 -10 0 -23 15 -24 15 0 14
-1 -3 -8 -19 -8 -19 -8 0 -19 11 -6 14 -12 7 -12 -7 0 -10 -5 -7 -11 7 -11 35
-114 37 -136 1 -7 5 -13 9 -13 5 0 6 -6 3 -14 -3 -8 0 -17 5 -21 6 -3 9 -11 6
-16 -4 -5 0 -12 9 -15 8 -3 12 -12 9 -20 -3 -9 0 -12 8 -9 13 5 49 -58 49 -85
0 -6 7 -10 15 -10 8 0 15 -4 15 -10 0 -5 7 -10 17 -10 9 0 14 -3 10 -6 -3 -3
-1 -18 5 -34 6 -20 6 -35 -2 -49 -9 -17 -8 -20 5 -15 10 4 15 2 13 -7 -2 -8 2
-13 9 -12 7 2 10 -6 8 -18 -3 -15 0 -19 10 -15 9 3 15 -1 15 -9 0 -8 5 -15 11
-15 8 0 8 -4 0 -13 -8 -10 -7 -17 1 -25 6 -6 11 -27 10 -47 -1 -25 3 -35 13
-35 8 0 15 -5 15 -11 0 -6 10 -19 23 -30 20 -16 20 -18 3 -19 -12 0 -16 -5
-12 -16 3 -9 6 -34 6 -55 0 -24 4 -38 10 -34 5 3 10 0 10 -7 0 -10 3 -9 11 2
9 12 10 12 5 -3 -3 -10 -6 -21 -6 -23 0 -2 -8 -4 -17 -5 -15 0 -14 -2 3 -9 21
-8 40 -60 23 -60 -5 0 -9 9 -9 20 0 18 -3 19 -21 9 l-21 -11 22 -15 c15 -10
18 -19 12 -25 -7 -7 -3 -19 13 -36 18 -19 21 -28 12 -34 -8 -5 -7 -8 4 -8 22
0 45 -29 41 -52 -2 -11 3 -18 12 -18 8 0 18 -5 22 -12 4 -7 3 -8 -4 -4 -7 4
-12 2 -12 -3 0 -6 11 -11 25 -11 14 0 25 -5 25 -11 0 -6 -9 -8 -22 -3 -21 6
-21 6 -5 -10 18 -19 13 -43 -11 -50 -10 -2 -3 -3 13 -1 17 1 29 8 27 14 -1 7
2 9 9 6 6 -4 8 -18 5 -30 -4 -14 -1 -26 7 -29 9 -5 9 -7 -2 -12 -11 -5 -9 -11
9 -24 17 -13 20 -19 10 -25 -9 -6 -11 -4 -5 6 7 12 6 12 -6 0 -11 -10 -11 -15
-1 -18 6 -3 12 -17 12 -32 0 -15 5 -32 12 -39 9 -9 8 -12 -5 -12 -10 0 -17 -8
-17 -20 0 -11 6 -20 14 -20 14 0 30 -29 21 -38 -3 -3 -5 0 -5 6 0 6 -9 14 -20
17 -12 4 -20 15 -20 28 0 18 -2 19 -10 7 -7 -11 -4 -20 10 -32 13 -10 16 -19
10 -23 -6 -3 -8 -11 -5 -16 4 -5 -1 -9 -9 -9 -9 0 -16 5 -16 10 0 6 -4 10 -10
10 -18 0 -10 -18 10 -25 11 -4 18 -10 15 -15 -3 -5 -13 -6 -22 -3 -15 6 -16 5
-3 -9 11 -11 18 -12 27 -4 32 29 41 34 46 29 12 -11 -5 -31 -21 -26 -9 4 -14
3 -10 -2 4 -4 0 -13 -9 -20 -16 -12 -10 -40 7 -30 4 3 10 -2 14 -10 3 -10 -1
-15 -13 -15 -10 0 -22 -7 -25 -16 -3 -8 -10 -13 -15 -9 -5 3 -13 0 -17 -6 -4
-7 -3 -9 4 -5 6 3 16 -2 22 -11 9 -14 10 -14 7 -2 -6 18 45 53 58 41 4 -4 5 3
2 16 -3 12 -1 20 4 17 9 -6 9 -54 -1 -53 -18 1 -21 -4 -10 -17 10 -12 9 -15
-8 -15 -15 0 -19 5 -16 23 4 20 4 20 -5 2 -12 -27 2 -39 35 -31 22 6 25 9 13
17 -12 7 -11 9 4 9 11 0 17 -8 17 -21 0 -13 -4 -18 -12 -13 -10 6 -10 5 0 -8
10 -12 9 -18 -3 -28 -21 -17 -19 -30 4 -30 11 0 22 -4 25 -8 9 -15 -33 -6 -52
11 -24 22 -33 22 -25 0 5 -11 3 -14 -6 -9 -7 5 -10 18 -7 30 5 20 5 20 -9 2
-13 -17 -15 -18 -15 -3 0 9 -6 17 -12 17 -9 0 -8 4 2 10 13 8 12 10 -2 10 -10
0 -18 7 -18 15 0 8 -9 15 -20 15 -11 0 -20 7 -20 16 0 8 -4 12 -10 9 -5 -3
-10 1 -10 11 0 13 -3 14 -13 5 -17 -13 -28 -4 -20 17 4 9 2 13 -4 9 -6 -4 -16
6 -22 24 -6 17 -15 28 -21 24 -5 -3 -10 2 -10 12 0 10 -13 28 -29 41 -17 13
-33 36 -36 53 -4 16 -10 28 -13 26 -4 -2 -15 4 -25 15 -9 10 -14 18 -10 18 3
0 -1 8 -10 18 -10 10 -14 22 -10 25 3 4 0 7 -8 7 -9 0 -25 17 -37 39 -12 21
-29 44 -37 51 -8 7 -15 21 -15 31 0 11 -4 19 -9 19 -5 0 -17 20 -27 45 -9 25
-21 45 -25 45 -5 0 -9 4 -9 9 0 5 -15 42 -34 83 -54 116 -87 234 -89 313 0 38
3 157 8 263 5 123 5 192 -2 192 -32 0 -110 -114 -213 -315 -75 -146 -94 -175
-117 -175 -27 0 -119 -38 -167 -69 -50 -31 -119 -94 -209 -190 -40 -41 -55
-51 -82 -51 -66 0 -343 -92 -505 -169 -25 -11 -69 -41 -99 -65 -30 -24 -75
-56 -101 -70 -43 -24 -176 -64 -290 -88 -156 -33 -251 -80 -349 -172 -92 -86
-160 -122 -311 -165 -175 -51 -511 -170 -585 -209 -22 -11 -70 -40 -107 -65
-37 -25 -95 -60 -130 -79 -77 -41 -139 -100 -172 -166 -19 -37 -41 -61 -81
-88 -31 -20 -80 -64 -110 -98 -30 -33 -94 -106 -143 -161 -178 -201 -367 -489
-539 -825 -47 -90 -98 -183 -114 -207 -40 -57 -60 -116 -58 -172 1 -25 -12
-102 -29 -171 -17 -69 -36 -163 -42 -210 -7 -56 -18 -93 -31 -110 -48 -62 -90
-129 -98 -158 -8 -27 -4 -42 26 -99 20 -38 40 -84 44 -103 10 -44 -4 -181 -36
-335 -41 -203 -47 -254 -47 -432 1 -95 3 -176 5 -180 7 -11 22 -199 21 -253
-1 -34 -16 -74 -58 -159 -31 -63 -69 -133 -85 -155 -15 -23 -53 -78 -84 -123
-82 -121 -84 -135 -48 -317 39 -197 39 -204 51 -391 6 -88 12 -187 15 -220 2
-33 7 -96 10 -140 4 -44 13 -122 20 -173 8 -52 12 -99 10 -105 -16 -51 -35
-377 -35 -622 -1 -121 -2 -260 -3 -310 -2 -105 19 -292 39 -351 8 -22 41 -72
73 -110 32 -38 96 -130 142 -204 47 -74 110 -166 139 -203 31 -38 60 -87 68
-114 31 -106 98 -172 262 -257 62 -32 127 -71 145 -87 49 -44 144 -98 199
-114 48 -14 50 -14 113 16 37 18 71 28 82 24 11 -3 28 -8 38 -10 10 -2 47 -12
83 -21 77 -19 272 -63 315 -70 40 -6 57 -10 75 -16 8 -3 53 -14 100 -23 47 -9
114 -25 150 -36 36 -10 82 -19 103 -21 20 -1 37 -6 37 -11 0 -5 7 -7 15 -3 8
3 49 -6 91 -20 42 -13 92 -27 112 -30 21 -3 48 -9 62 -14 14 -5 50 -14 80 -19
77 -15 238 -49 279 -61 19 -5 38 -7 42 -4 5 2 16 0 26 -5 23 -12 82 -28 158
-42 33 -6 65 -14 70 -18 6 -4 26 -8 45 -10 19 -2 42 -7 50 -11 8 -4 31 -10 50
-13 19 -2 54 -10 78 -16 23 -7 47 -9 52 -6 6 3 10 1 10 -4 0 -6 9 -11 21 -11
11 0 46 -7 77 -16 32 -10 64 -18 72 -19 43 -4 90 -18 90 -26 0 -5 10 -9 23 -9
12 0 67 -12 122 -26 55 -14 115 -28 134 -30 19 -2 49 -8 67 -14 19 -6 39 -8
45 -4 8 5 9 3 4 -6 -6 -10 -4 -12 8 -7 9 3 19 2 22 -3 4 -6 15 -10 26 -10 10
0 19 -4 19 -9 0 -5 8 -8 18 -6 9 1 25 -2 35 -7 10 -5 17 -5 17 1 0 9 59 -7 70
-19 3 -3 16 -6 30 -7 58 -3 90 -8 90 -13 0 -3 8 -6 18 -6 40 -2 86 -14 92 -24
6 -9 9 -9 13 1 5 11 8 11 19 -2 7 -9 22 -15 33 -13 10 2 25 -2 32 -8 7 -6 13
-7 13 -3 0 4 7 2 16 -6 12 -10 17 -10 23 0 6 10 10 8 15 -5 3 -9 9 -14 13 -11
3 4 15 2 26 -4 14 -8 18 -8 13 0 -4 6 -3 11 3 11 5 0 11 -5 13 -12 2 -6 19
-11 38 -10 26 1 31 -2 20 -9 -11 -8 -8 -9 12 -5 15 3 29 2 33 -4 3 -5 20 -10
38 -10 58 0 68 -3 63 -16 -4 -9 2 -13 17 -11 16 1 22 -3 21 -15 -1 -10 4 -18
12 -18 8 0 13 3 13 8 -3 18 2 32 12 32 5 0 8 -4 5 -9 -9 -13 29 -20 49 -8 13
7 16 6 11 -2 -4 -6 0 -11 9 -11 10 0 14 5 9 13 -4 6 4 1 17 -12 25 -26 34 -51
18 -51 -6 0 -7 -6 -3 -12 6 -10 4 -10 -7 -1 -7 7 -21 13 -32 13 -10 0 -16 4
-12 9 3 5 1 12 -5 16 -5 3 -10 -2 -10 -12 -1 -17 -1 -17 -11 0 -8 14 -18 16
-45 11 -19 -3 -34 -2 -34 3 0 5 -39 15 -87 22 -49 7 -92 16 -98 19 -5 4 -16 7
-24 9 -8 1 -17 6 -20 11 -3 5 -13 9 -21 9 -30 0 -111 14 -134 23 -13 5 -27 6
-30 3 -3 -3 -12 -1 -19 6 -8 6 -23 10 -33 9 -28 -3 -94 13 -94 23 0 5 -3 8 -8
7 -11 -2 -78 11 -167 34 -44 11 -92 21 -107 22 -15 1 -31 5 -34 9 -4 4 -18 7
-31 7 -13 0 -23 6 -23 13 0 8 -4 7 -10 -3 -5 -8 -10 -10 -10 -4 0 6 -6 11 -12
12 -38 3 -80 12 -98 22 -11 6 -20 9 -20 6 0 -2 -28 3 -62 11 -35 8 -79 17 -98
20 -19 2 -62 13 -95 23 -66 21 -131 34 -157 32 -10 0 -18 4 -18 9 0 6 -4 8 -8
5 -5 -3 -21 2 -37 10 -15 8 -36 12 -47 9 -10 -4 -18 -1 -18 5 0 6 -4 9 -9 6
-8 -5 -41 3 -91 21 -8 3 -31 7 -50 9 -19 2 -48 8 -64 14 -15 5 -32 7 -37 4 -5
-3 -19 1 -31 8 -13 6 -27 13 -33 14 -5 1 -25 5 -44 8 -18 4 -77 18 -130 32
-104 28 -119 31 -169 33 -22 1 -31 5 -26 13 4 6 3 8 -3 5 -5 -3 -27 -1 -49 4
-21 5 -50 12 -64 14 -14 2 -50 9 -80 15 -30 6 -73 13 -95 16 -22 3 -44 10 -49
15 -6 5 -22 9 -37 9 -15 0 -57 7 -92 15 -35 8 -79 17 -98 19 -19 3 -47 9 -63
16 -16 6 -45 13 -65 16 -20 3 -101 21 -181 39 -80 18 -172 39 -205 46 -68 14
-65 14 -85 22 -8 3 -28 8 -45 11 -16 3 -50 10 -75 16 -25 7 -56 14 -69 16 -14
3 -28 7 -31 9 -10 6 -71 18 -99 19 -17 1 -30 -7 -40 -27 -15 -26 -15 -29 3
-42 17 -13 18 -18 7 -39 -9 -16 -12 -49 -9 -96 3 -63 7 -75 29 -94 101 -84
123 -102 133 -111 6 -6 34 -28 61 -50 28 -21 60 -48 72 -59 35 -34 84 -72 189
-145 54 -39 104 -74 110 -78 5 -4 19 -13 30 -20 176 -108 244 -156 244 -173 0
-5 -30 -11 -68 -14 -82 -8 -212 -34 -232 -47 -8 -5 -23 -12 -32 -15 -21 -7
-22 -16 -6 -32 16 -16 31 -15 22 1 -4 6 2 4 13 -6 11 -9 25 -17 32 -17 7 0 10
-4 7 -9 -4 -5 2 -7 13 -4 11 3 21 -2 24 -11 4 -9 12 -16 18 -16 7 0 35 -11 63
-24 28 -13 74 -34 101 -47 28 -13 56 -22 64 -21 8 2 10 -1 5 -9 -4 -8 -3 -10
4 -5 7 4 17 4 24 0 7 -4 24 -9 37 -10 14 -2 30 -9 36 -16 5 -7 15 -13 20 -13
18 -1 100 -28 109 -37 6 -4 16 -8 23 -8 7 0 32 -9 56 -19 38 -17 86 -33 112
-36 6 -1 26 -9 45 -18 43 -19 70 -29 90 -32 8 -1 54 -17 102 -34 47 -17 94
-31 102 -31 9 0 16 -5 16 -11 0 -5 4 -7 10 -4 5 3 10 1 10 -5 0 -7 7 -10 15
-6 8 3 15 1 15 -5 0 -5 6 -9 13 -8 6 2 29 -5 51 -14 21 -9 42 -14 47 -11 5 3
9 1 9 -3 0 -5 32 -17 70 -28 39 -11 70 -23 70 -27 0 -4 9 -8 20 -8 12 0 32 -7
45 -16 13 -9 29 -13 34 -10 5 4 12 2 16 -3 3 -5 14 -8 25 -6 13 3 18 0 14 -7
-5 -7 0 -9 14 -6 12 4 22 2 22 -4 0 -6 6 -8 14 -5 8 3 20 -1 27 -9 7 -8 18
-13 25 -10 7 3 16 1 19 -4 4 -6 15 -10 25 -10 10 0 35 -9 54 -21 19 -11 40
-18 46 -14 5 3 10 2 10 -3 0 -5 6 -9 13 -10 27 -2 46 -8 60 -20 8 -7 21 -10
30 -6 8 3 18 1 22 -5 3 -6 14 -11 23 -11 9 0 40 -12 67 -25 28 -14 58 -25 67
-25 10 0 33 -9 53 -20 36 -20 76 -32 108 -32 9 1 17 -4 17 -10 0 -6 9 -8 20
-5 11 3 18 2 15 -3 -2 -4 17 -13 43 -20 26 -7 52 -16 57 -19 6 -3 15 -6 20 -6
6 -1 26 -8 45 -17 19 -9 38 -15 41 -15 3 1 13 -4 22 -12 10 -7 17 -11 17 -7 0
4 13 0 29 -8 16 -9 31 -12 34 -9 4 3 12 1 19 -4 7 -6 26 -13 41 -17 15 -4 25
-11 22 -16 -3 -6 -1 -10 4 -10 6 0 11 5 11 12 0 7 6 6 18 -4 18 -16 110 -48
136 -48 9 0 16 -4 16 -9 0 -5 18 -11 40 -15 22 -3 40 -10 40 -16 0 -5 9 -7 20
-5 11 2 22 0 25 -5 3 -5 12 -7 19 -4 7 3 16 -2 19 -10 4 -9 13 -13 22 -10 8 3
15 2 15 -3 0 -5 6 -10 13 -11 6 0 35 -7 62 -15 28 -8 57 -16 65 -18 8 -2 22
-12 31 -22 10 -10 23 -15 33 -11 9 4 16 1 16 -6 0 -7 7 -10 16 -6 8 3 12 2 9
-4 -4 -6 7 -10 24 -10 16 0 34 -6 38 -12 4 -7 15 -14 23 -15 30 -3 59 -12 80
-23 12 -6 30 -13 41 -16 10 -2 29 -6 40 -9 12 -2 39 -14 61 -25 21 -11 46 -20
56 -20 9 -1 35 -8 57 -16 22 -8 48 -17 59 -19 10 -2 23 -8 30 -13 6 -5 35 -15
64 -22 30 -7 56 -18 58 -25 3 -7 13 -12 22 -11 9 2 24 -1 32 -5 8 -5 34 -13
58 -19 23 -6 42 -15 42 -21 0 -6 4 -7 10 -4 5 3 16 3 22 -1 7 -5 19 -9 28 -10
22 -4 42 -10 73 -22 16 -7 34 -12 41 -12 6 0 16 -4 22 -9 5 -6 21 -11 36 -13
15 -2 30 -7 34 -11 4 -4 17 -7 28 -7 12 0 44 -12 71 -25 28 -14 60 -25 72 -25
12 0 25 -4 28 -10 3 -5 15 -10 26 -10 11 0 32 -8 46 -18 15 -9 24 -12 21 -6
-4 6 15 0 41 -13 27 -12 57 -24 68 -26 10 -2 31 -9 46 -15 16 -7 35 -12 43
-12 8 0 14 -4 14 -9 0 -5 22 -11 49 -15 27 -3 54 -13 61 -21 7 -8 23 -15 36
-15 13 0 24 -4 24 -8 0 -7 16 -11 58 -14 6 -1 12 -8 12 -17 0 -13 2 -13 9 -2
6 9 11 10 15 2 4 -6 12 -9 17 -6 5 4 9 2 9 -4 0 -6 17 -13 38 -16 20 -4 51
-12 67 -18 17 -7 33 -11 38 -9 4 1 7 -2 7 -8 0 -5 7 -6 17 -3 12 5 14 3 8 -7
-6 -10 -3 -12 13 -8 16 4 22 2 22 -10 0 -8 3 -13 6 -9 4 3 22 0 41 -8 19 -8
39 -12 44 -9 5 3 29 -4 53 -14 24 -11 58 -23 75 -27 17 -4 29 -10 26 -15 -3
-4 2 -11 11 -14 8 -3 12 -2 9 4 -3 6 -1 10 4 10 6 0 11 -6 11 -13 0 -9 10 -12
30 -9 24 3 30 1 30 -14 0 -16 2 -17 10 -4 8 13 11 13 19 1 5 -8 16 -11 25 -8
10 4 16 1 16 -8 0 -7 8 -14 18 -14 38 -1 52 -5 52 -13 0 -5 5 -6 10 -3 6 3 10
3 10 -2 0 -4 19 -9 43 -11 23 -1 43 -7 45 -12 2 -5 19 -12 38 -16 18 -3 31
-10 28 -15 -3 -5 9 -7 25 -5 17 2 31 -1 31 -6 0 -5 4 -7 9 -3 5 3 12 1 16 -5
3 -5 17 -10 31 -10 13 0 24 -4 24 -9 0 -6 8 -10 18 -10 32 0 77 -13 94 -28 11
-10 18 -11 23 -4 4 8 11 7 20 -3 8 -8 26 -13 40 -12 17 2 25 -2 26 -13 0 -9 3
-11 5 -4 4 8 13 9 33 2 27 -10 2271 -8 2301 2 8 2 21 8 28 12 6 5 17 5 24 1 7
-5 8 -3 3 6 -6 10 -4 12 8 7 10 -3 17 -2 17 3 0 6 11 10 24 10 14 0 28 5 32
12 5 8 10 7 18 -4 10 -13 14 -12 31 5 20 20 20 20 -2 8 -13 -6 -23 -8 -23 -3
0 15 43 22 52 9 7 -11 12 -2 9 17 -1 5 6 6 14 2 9 -3 22 -3 28 1 7 4 21 9 31
10 11 2 25 8 33 14 9 8 13 8 13 0 0 -15 22 -10 37 9 11 13 12 12 7 -5 -5 -18
-3 -17 15 4 12 13 21 18 21 11 0 -10 3 -10 15 0 8 7 15 9 15 5 0 -5 8 -1 18 7
9 9 31 14 50 13 17 -2 32 2 32 7 0 6 6 5 15 -2 12 -10 15 -10 15 3 0 22 20 32
31 16 7 -11 9 -10 9 4 0 14 5 17 19 12 11 -3 22 -1 26 4 3 6 22 9 41 6 21 -2
32 0 29 5 -7 11 4 16 45 24 50 10 98 24 109 30 6 4 25 9 41 11 48 6 110 27
110 38 0 5 6 5 13 -2 10 -8 19 -7 33 4 10 8 40 17 66 21 37 5 45 10 41 23 -3
10 -2 12 4 5 10 -14 44 -15 61 -1 6 5 12 6 12 1 0 -5 4 -3 9 5 5 7 22 13 37
13 16 0 32 5 35 10 3 5 25 12 47 15 27 4 39 10 35 17 -4 6 0 5 9 -2 13 -10 17
-10 21 2 5 12 13 13 37 6 17 -5 28 -5 25 0 -5 8 18 26 37 29 4 1 15 4 23 7 8
4 22 0 31 -7 12 -10 15 -10 12 2 -2 9 5 14 20 13 12 0 22 2 22 5 0 3 14 7 32
7 18 1 34 6 36 13 2 6 8 9 13 5 5 -3 9 -1 9 4 0 5 11 7 25 4 16 -3 25 0 25 8
0 7 7 10 15 6 8 -3 21 2 30 10 9 9 25 14 36 11 10 -3 26 1 34 10 9 8 15 10 15
3 0 -6 11 -3 26 7 30 19 75 24 87 8 5 -5 6 -1 3 10 -4 15 -1 21 12 22 48 4 99
16 117 27 11 7 30 12 43 10 12 -2 22 1 22 6 0 6 9 10 20 10 11 0 20 4 20 8 0
8 10 10 68 14 17 2 32 6 32 10 0 4 7 4 17 1 12 -5 14 -3 8 7 -6 10 -4 12 8 7
10 -3 17 -2 17 2 0 5 11 8 25 7 13 -2 22 1 19 5 -3 5 2 10 10 10 9 1 19 2 24
4 4 1 24 5 45 9 20 5 37 11 37 15 0 4 17 8 37 9 20 1 40 7 45 14 4 7 8 4346 8
9641 l0 9628 -26 34 c-17 23 -31 32 -41 28 -13 -5 -15 -2 -11 15 4 12 3 22 -2
22 -4 0 -15 16 -24 35 -12 25 -21 33 -34 28 -16 -6 -16 -6 1 11 19 19 23 31 7
21 -5 -3 -10 0 -10 7 0 10 -2 10 -9 -1 -8 -12 -12 -12 -26 2 -9 10 -14 17 -10
17 3 0 -30 35 -75 79 -69 65 -90 80 -132 90 -62 14 -103 14 -168 0 -43 -9 -59
-8 -110 9 -58 20 -59 20 -81 1z m-6360 -2176 c-1 -5 -1 -25 0 -47 1 -29 4 -37
16 -32 8 3 15 2 15 -3 0 -5 10 -12 23 -16 19 -6 19 -8 4 -12 -9 -2 -15 -9 -12
-14 4 -5 0 -9 -7 -9 -9 0 -9 -3 2 -11 12 -8 11 -9 -5 -7 -12 2 -19 -2 -17 -10
1 -8 -2 -11 -9 -7 -8 5 -8 10 0 18 18 18 12 27 -19 27 -17 0 -30 -5 -30 -12
-1 -24 -48 -68 -65 -62 -9 4 -14 12 -11 19 3 8 -2 16 -10 19 -16 6 -19 46 -3
46 6 0 9 7 5 15 -3 9 0 15 10 15 9 0 36 20 61 45 43 44 54 52 52 38z m329 -52
c5 -35 37 -64 72 -65 16 -1 30 -5 30 -9 0 -12 32 -79 45 -94 32 -38 35 -43 26
-43 -5 0 -13 5 -16 10 -4 6 -11 8 -16 5 -5 -4 -13 4 -18 17 -6 13 -10 20 -10
15 -1 -4 -18 3 -38 16 -21 13 -53 29 -71 37 -23 9 -35 21 -39 41 -3 15 -11 30
-18 33 -8 3 -13 18 -13 33 1 25 5 29 32 28 25 -1 32 -5 34 -24z m-65 -2520
c15 -6 27 -14 27 -17 0 -4 -3 -4 -6 -1 -4 3 -16 0 -28 -8 -11 -8 -32 -15 -46
-15 -13 0 -47 -9 -75 -19 -49 -19 -152 -39 -231 -45 -23 -2 -46 -6 -53 -10 -7
-5 -15 -5 -18 -2 -3 3 10 12 29 20 20 9 49 26 64 38 38 30 94 58 136 68 44 10
166 5 201 -9z m2264 -569 c5 -59 14 -289 13 -332 -2 -103 -10 -213 -17 -223
-4 -6 -1 -7 7 -2 10 6 11 4 6 -11 -5 -10 -10 -35 -12 -54 -2 -19 -8 -57 -13
-85 -6 -27 -15 -78 -22 -113 -7 -35 -17 -69 -24 -76 -6 -6 -11 -19 -9 -29 4
-28 -18 -87 -33 -87 -17 0 -17 19 1 26 12 5 12 9 0 32 -13 25 -12 27 9 34 12
3 17 6 11 7 -6 1 -10 13 -8 28 1 15 -3 31 -9 35 -8 5 -6 8 6 8 9 0 17 5 17 11
0 6 -9 8 -22 4 -22 -6 -22 -5 -3 7 23 15 31 38 12 38 -8 0 -7 4 3 10 9 6 10
10 3 10 -6 0 -11 9 -10 20 1 11 5 20 10 20 4 0 5 5 2 10 -4 6 -11 8 -16 4 -6
-3 -5 3 3 15 10 17 10 25 0 41 -6 11 -12 23 -12 27 0 5 5 1 10 -7 6 -9 10 -10
10 -3 0 7 -9 17 -21 23 -17 9 -23 8 -34 -7 -7 -10 -11 -22 -8 -27 4 -5 1 -6
-5 -2 -15 9 0 40 26 55 9 6 11 11 5 11 -7 0 -13 6 -13 14 0 7 -12 16 -27 19
-24 5 -26 4 -10 -8 16 -11 15 -13 -10 -18 -30 -6 -80 -39 -53 -35 8 2 18 7 22
12 3 5 14 2 23 -7 15 -16 15 -17 -4 -17 -25 0 -26 -8 -4 -35 15 -20 15 -20 10
3 -6 27 9 20 16 -8 4 -15 0 -20 -14 -20 -10 0 -19 -4 -19 -10 0 -6 -5 -9 -11
-8 -6 2 -13 -5 -14 -15 -3 -15 -1 -16 11 -6 11 9 17 9 29 -1 8 -7 15 -17 15
-22 0 -5 -7 -2 -16 6 -19 20 -20 20 -28 0 -4 -11 -2 -15 6 -11 7 2 19 -2 26
-9 10 -11 10 -14 0 -14 -7 0 -13 -13 -14 -30 -1 -17 3 -27 9 -23 6 4 7 1 2 -7
-6 -10 -2 -12 16 -7 23 6 23 5 5 -8 -11 -8 -22 -12 -25 -7 -3 4 -19 16 -36 26
-16 10 -24 13 -17 5 20 -22 13 -33 -9 -13 -11 10 -19 14 -18 9 4 -18 -13 -45
-24 -38 -22 14 -46 9 -50 -9 -3 -10 -14 -18 -27 -18 -11 0 -19 -4 -15 -9 3 -5
1 -12 -5 -16 -5 -3 -10 3 -10 14 0 12 -6 21 -14 21 -7 0 -21 10 -29 23 l-16
22 0 -22 c-1 -15 -7 -23 -19 -23 -10 0 -23 -5 -29 -11 -7 -7 -12 -3 -15 15 -3
14 -1 26 3 26 5 0 9 5 9 12 0 6 -3 9 -6 5 -4 -3 -13 1 -21 9 -12 11 -18 12
-29 3 -12 -10 -18 -9 -27 1 -9 10 -9 11 1 6 6 -4 12 -2 12 3 0 6 -7 11 -15 11
-8 0 -15 4 -15 9 0 5 -18 12 -39 16 -29 5 -38 11 -34 21 3 8 0 14 -5 14 -7 0
-9 14 -5 35 l6 36 -37 -3 c-21 -1 -40 -6 -43 -12 -4 -5 3 -7 15 -4 12 4 22 2
22 -3 0 -16 -40 -10 -47 7 -3 10 -13 14 -26 10 -17 -4 -17 -2 4 20 16 17 19
24 9 22 -8 -2 -20 -9 -25 -16 -9 -11 -14 -9 -29 7 -10 11 -23 18 -29 14 -7 -4
-8 0 -4 11 5 13 3 17 -7 13 -8 -3 -22 1 -33 8 -11 9 -13 14 -5 15 7 0 10 5 7
10 -3 6 -1 10 4 10 6 0 11 -4 11 -10 0 -5 4 -10 10 -10 14 0 1 28 -17 34 -9 4
-22 1 -30 -6 -12 -10 -14 -9 -13 3 5 34 0 60 -12 53 -8 -5 -9 -2 -5 9 3 9 2
19 -4 22 -5 4 -7 10 -4 15 3 4 -4 10 -15 13 -11 3 -20 11 -20 17 0 7 7 10 15
6 9 -3 15 0 15 9 0 8 -4 15 -9 15 -11 0 -9 19 3 39 6 10 5 12 -2 7 -7 -4 -12
0 -13 11 0 16 -1 16 -9 -2 -9 -20 -15 -7 -11 23 1 7 -4 11 -11 10 -8 -2 -13 6
-12 20 0 17 -4 21 -15 17 -12 -4 -11 -1 3 9 10 8 19 26 20 41 2 38 36 43 78
12 18 -13 41 -27 51 -30 9 -4 17 -14 17 -24 0 -14 2 -15 9 -4 7 11 10 11 17
-1 11 -17 99 -79 137 -96 15 -7 26 -16 23 -21 -3 -5 10 -12 30 -16 27 -5 41
-2 55 11 10 9 19 12 19 7 0 -15 40 -24 41 -10 0 7 4 3 9 -8 7 -18 9 -16 15 12
8 34 33 52 47 31 4 -7 8 -8 8 -3 0 6 -5 16 -11 22 -8 8 -1 11 25 9 27 -1 35 2
31 12 -3 7 0 10 6 7 6 -4 19 1 30 11 10 9 22 14 26 11 3 -4 1 -7 -6 -7 -7 0
-10 -4 -6 -10 10 -16 35 1 36 24 0 11 3 16 5 10 2 -5 19 -9 37 -7 17 2 37 4
44 5 8 1 9 7 2 19 -14 27 -11 34 18 36 29 1 52 -20 53 -49 0 -12 5 -15 16 -11
11 4 15 1 13 -13 -4 -28 10 -64 26 -64 7 0 15 -7 19 -15 3 -9 12 -12 22 -8 15
6 15 4 -1 -20 -9 -15 -13 -27 -9 -27 5 0 2 -5 -6 -10 -11 -7 -12 -10 -2 -10
14 0 42 24 42 35 0 3 -6 3 -12 0 -7 -3 -3 2 10 11 23 17 30 36 11 32 -6 -2
-14 3 -16 10 -3 7 3 12 14 13 16 0 16 1 -2 9 -19 8 -19 9 3 9 12 1 22 6 22 12
0 5 -4 8 -8 5 -4 -2 -7 26 -7 62 0 54 4 72 22 91 18 21 19 26 7 38 -10 11 -11
19 -4 34 7 13 7 19 0 19 -5 0 -10 7 -10 16 0 10 6 14 14 11 10 -4 13 -1 9 9
-3 7 0 14 6 14 6 0 8 6 5 14 -3 9 -12 12 -22 8 -15 -5 -15 -3 -4 11 18 22 37
12 39 -21z m-2055 -887 c4 -5 11 -10 15 -11 4 0 16 -4 26 -9 10 -4 21 -5 24
-1 3 3 11 -4 17 -16 12 -22 13 -23 87 -36 53 -10 159 -58 159 -73 0 -6 5 -7
10 -4 6 3 10 -2 10 -12 0 -14 2 -15 9 -4 6 9 11 10 15 2 11 -17 -17 -52 -36
-45 -10 3 -18 1 -18 -5 0 -6 -5 -11 -11 -11 -5 0 -8 4 -5 8 3 5 -1 9 -9 9 -15
0 -27 -19 -34 -54 -1 -5 -8 1 -16 11 -8 11 -15 14 -15 8 0 -7 -6 -12 -14 -12
-8 0 -16 -6 -19 -14 -9 -23 -59 -42 -105 -39 -25 1 -40 -2 -37 -8 4 -5 1 -9
-4 -9 -6 0 -11 5 -11 11 0 5 -4 8 -9 5 -20 -13 -81 -15 -88 -3 -10 16 -49 45
-40 31 4 -7 0 -15 -9 -18 -26 -10 -54 -7 -54 6 0 6 -3 8 -7 5 -10 -11 -33 13
-33 35 0 10 5 16 10 13 10 -6 14 15 11 44 -2 7 2 10 8 6 6 -3 11 -1 11 5 0 6
5 8 13 4 7 -5 6 0 -3 11 -14 17 -13 18 2 13 11 -5 18 0 21 13 3 12 1 17 -5 12
-7 -4 -8 -1 -2 8 13 21 14 39 1 39 -5 0 -7 3 -4 6 4 4 13 2 20 -4 11 -9 13 -5
10 21 -3 22 -1 28 5 19 7 -11 10 -11 15 2 4 9 4 23 1 31 -4 8 -1 15 5 15 6 0
11 -7 11 -15 0 -8 7 -15 15 -15 8 0 15 9 15 20 0 22 28 25 42 5z m87 -701 c30
-3 64 -12 76 -20 12 -8 24 -11 28 -8 9 9 66 -6 82 -23 9 -8 15 -10 15 -3 0 6
4 8 10 5 5 -3 42 -8 81 -10 39 -3 77 -9 83 -14 6 -5 49 -9 96 -10 46 -1 90 -7
97 -13 9 -8 13 -7 13 2 0 8 3 11 6 7 3 -3 -1 -16 -10 -29 -10 -15 -16 -17 -16
-8 0 9 -3 11 -8 5 -4 -6 -23 -11 -42 -12 -68 -2 -137 -10 -147 -16 -18 -11
-63 -16 -63 -6 0 6 -4 8 -9 5 -5 -3 -12 1 -15 10 -4 9 -13 14 -21 10 -8 -3
-15 -1 -15 4 0 6 -7 10 -15 10 -8 0 -15 5 -15 10 0 6 -7 10 -15 10 -8 0 -15
-4 -15 -10 0 -5 -7 -10 -16 -10 -8 0 -12 -4 -9 -10 3 -5 2 -10 -4 -10 -6 0 -7
-7 -4 -17 4 -10 2 -14 -5 -9 -6 3 -13 2 -17 -3 -3 -6 -12 -8 -20 -4 -8 3 -15
1 -15 -5 0 -6 6 -12 13 -15 6 -2 9 -7 6 -11 -3 -4 -19 -2 -35 5 -16 6 -38 13
-48 15 -11 2 -24 10 -28 19 -5 8 -14 15 -21 15 -7 0 -6 -4 3 -10 12 -8 11 -10
-7 -10 -13 0 -23 5 -23 10 0 6 -9 10 -19 10 -11 0 -23 5 -26 10 -4 6 -16 -1
-28 -17 -12 -15 -27 -32 -34 -36 -7 -4 -13 -15 -13 -22 0 -8 -5 -15 -11 -15
-5 0 -7 5 -3 12 4 7 3 8 -4 4 -7 -4 -12 -14 -12 -22 0 -8 -4 -14 -10 -14 -5 0
-10 5 -10 11 0 5 -4 8 -9 4 -5 -3 -12 -1 -16 5 -8 14 -26 13 -22 -1 1 -6 -5
-14 -13 -16 -13 -4 -13 -3 0 6 10 7 11 11 3 11 -7 0 -10 6 -7 13 3 8 -4 13
-18 14 -18 2 -20 0 -8 -8 11 -8 7 -9 -15 -4 -35 8 -45 16 -27 22 6 3 12 9 12
14 0 6 -5 7 -12 3 -7 -5 -8 -3 -3 6 4 7 2 16 -6 22 -11 8 -10 8 4 4 13 -4 20
0 24 14 3 11 10 20 15 20 5 0 6 -4 3 -10 -3 -6 1 -7 10 -3 13 4 14 8 4 14 -17
10 44 71 65 63 8 -3 21 -1 28 6 52 45 72 49 207 34z m-444 -374 c-3 -5 -1 -10
5 -10 7 0 9 -7 6 -16 -3 -8 -2 -12 3 -9 5 3 13 0 17 -6 4 -8 3 -9 -4 -5 -19
11 -14 -2 10 -29 12 -14 28 -23 34 -21 7 3 18 -2 24 -10 14 -16 40 -19 40 -4
0 6 5 10 11 10 5 0 7 -5 3 -12 -5 -8 -1 -9 12 -5 18 7 18 6 2 -7 -19 -14 -24
-27 -10 -25 20 3 25 -2 12 -12 -12 -8 -10 -9 8 -4 13 4 22 2 22 -5 0 -6 5 -8
13 -3 6 4 20 6 30 5 9 -2 17 2 17 7 0 6 4 11 10 11 6 0 9 -3 9 -7 -5 -29 3
-35 36 -31 27 3 35 0 35 -12 0 -10 3 -11 8 -3 4 6 18 11 32 11 14 0 40 2 58 4
21 3 47 -2 70 -14 20 -10 44 -15 55 -12 10 3 25 0 34 -8 12 -9 15 -9 9 0 -4 6
-3 12 2 12 6 0 13 -7 16 -16 4 -10 12 -14 23 -10 9 4 24 -1 35 -10 10 -10 21
-14 25 -10 4 4 1 11 -7 16 -9 6 -10 10 -3 10 7 0 17 -8 23 -17 8 -13 13 -14
16 -5 11 26 23 11 17 -23 -5 -29 -3 -35 13 -36 18 0 18 -1 -1 -9 -27 -12 -37
-12 -30 0 3 5 -4 19 -17 32 -14 14 -23 17 -26 10 -2 -7 -8 -12 -13 -12 -4 0
-6 8 -2 18 6 16 5 16 -13 0 -13 -12 -24 -14 -36 -7 -11 6 -19 6 -23 -1 -3 -6
1 -13 11 -17 15 -5 14 -8 -7 -16 -13 -6 -28 -9 -33 -8 -4 1 -14 -3 -21 -9 -10
-8 -14 -7 -18 2 -4 9 -6 9 -6 1 -1 -19 18 -26 34 -13 8 7 15 9 15 5 0 -4 6 -2
14 4 8 7 17 8 20 3 3 -5 -7 -14 -22 -20 -45 -17 -91 -22 -98 -11 -4 8 -9 8
-17 0 -7 -7 -16 -7 -28 0 -14 7 -23 5 -39 -11 -21 -21 -35 -27 -25 -10 9 14
-8 12 -24 -2 -11 -10 -12 -10 -7 -1 5 9 2 11 -8 7 -9 -3 -16 -11 -16 -16 0 -6
-8 -9 -17 -6 -18 4 -66 -36 -55 -46 3 -3 0 -6 -6 -6 -7 0 -12 4 -12 10 0 6 -9
6 -24 0 -17 -6 -26 -5 -29 3 -2 6 -26 12 -58 12 -30 1 -59 4 -64 7 -6 3 -25 9
-43 13 -24 5 -30 10 -23 19 16 19 -26 51 -45 35 -12 -10 -13 -9 -7 7 6 17 5
17 -10 5 -15 -12 -17 -12 -11 3 3 9 1 16 -4 16 -6 0 -13 8 -17 18 -3 11 -17
24 -31 30 -33 15 -33 15 -31 -7 0 -11 4 -18 8 -15 4 2 9 -1 12 -8 2 -7 3 -5 2
5 -2 9 1 17 5 17 16 0 19 -17 7 -33 -17 -23 -57 -12 -52 14 2 10 -1 22 -7 25
-6 4 -8 2 -4 -4 3 -6 2 -13 -3 -16 -5 -4 -8 2 -7 11 2 9 11 22 22 27 10 6 22
16 26 21 5 7 8 7 8 0 0 -11 20 15 20 27 0 3 -7 8 -17 10 -14 3 -14 5 2 18 11
8 16 10 12 3 -14 -23 8 -21 26 3 10 13 13 24 7 24 -15 0 -12 26 6 41 13 10 17
10 24 -2 7 -11 12 -11 22 -1 8 8 8 12 1 12 -6 0 -14 7 -17 16 -5 14 -4 15 8 5
11 -9 20 -10 36 -1 20 11 20 13 6 29 -18 20 -22 61 -5 61 5 0 7 -4 4 -10z
m855 -2249 c0 -5 11 -11 25 -13 13 -3 22 -1 19 3 -3 5 -3 9 0 9 2 0 12 3 21 7
15 5 16 3 7 -14 -8 -14 -8 -23 0 -31 9 -9 9 -12 0 -12 -7 0 -12 -7 -12 -16 0
-9 5 -12 13 -8 10 6 10 4 0 -7 -14 -14 -18 -63 -5 -55 4 2 9 -10 10 -27 1 -18
10 -38 19 -44 15 -12 11 -18 -10 -14 -5 1 -6 -2 -3 -7 7 -11 -74 -94 -127
-130 -23 -16 -71 -44 -107 -63 -49 -25 -98 -67 -197 -166 -73 -73 -133 -130
-133 -127 0 4 -6 1 -13 -5 -18 -14 -37 1 -70 54 -13 22 -50 69 -82 105 -62 70
-226 230 -236 230 -3 0 -12 11 -19 25 -7 13 -21 27 -32 31 -14 4 -16 9 -8 24
13 24 13 39 -1 20 -8 -12 -9 -10 -7 10 2 15 -2 24 -9 23 -7 -2 -10 4 -7 12 4
8 10 15 14 15 4 0 8 11 8 25 0 14 -6 25 -12 25 -6 0 -4 5 4 10 11 7 12 10 2
10 -18 0 -46 29 -37 38 3 4 11 -1 16 -11 6 -10 22 -17 39 -17 17 0 30 -4 30
-10 0 -21 30 -9 53 22 25 31 25 31 52 14 15 -10 25 -14 22 -9 -3 5 3 14 14 21
17 11 21 9 29 -13 5 -14 12 -25 15 -25 4 0 3 5 0 10 -10 17 24 45 38 31 13
-13 31 -15 23 -3 -3 5 1 9 9 9 8 0 11 -5 8 -10 -3 -5 0 -7 8 -5 8 3 13 12 11
19 -2 10 1 9 10 -2 16 -19 56 -18 69 2 7 12 9 11 9 -3 0 -19 28 -18 41 3 7 12
9 12 10 -1 1 -8 1 -18 0 -22 0 -5 4 -8 10 -8 6 0 8 -8 5 -17 -6 -17 -5 -17 8
0 7 9 18 17 25 17 6 0 11 6 11 13 0 8 3 7 9 -3 12 -17 4 -33 -12 -24 -7 4 -9
3 -4 -1 10 -11 48 -17 44 -7 -1 4 2 8 7 10 6 1 11 -5 12 -14 1 -9 6 -19 10
-22 4 -4 4 1 1 11 -4 9 -2 17 5 17 7 0 7 4 -1 14 -9 11 -9 16 0 22 8 4 9 3 5
-4 -4 -7 -1 -12 9 -12 9 0 13 -4 10 -10 -3 -5 1 -10 9 -10 9 0 16 -6 16 -14 0
-8 5 -18 12 -22 7 -4 8 -3 4 4 -4 7 -1 12 8 12 9 0 16 7 16 16 0 9 -5 12 -12
8 -10 -5 -10 -4 -1 6 16 17 25 9 27 -23 0 -14 5 -23 9 -20 5 3 6 11 3 19 -3 8
-1 14 4 14 6 0 10 -8 10 -17 0 -15 2 -15 9 -4 5 8 6 21 3 30 -5 14 -3 14 11 2
16 -12 21 -8 18 12 -1 4 4 7 11 6 33 -4 41 1 28 16 -15 18 1 20 19 3 11 -11
12 -9 3 7 -9 17 -7 20 15 21 16 1 23 -2 20 -10 -8 -21 42 -6 54 15 10 19 29
26 29 10z m1171 -4870 c165 -64 343 -137 494 -205 77 -35 176 -76 220 -90 91
-32 244 -95 327 -137 68 -34 104 -37 111 -10 2 11 22 30 43 44 36 22 41 23 67
10 25 -13 28 -12 38 9 14 29 88 90 100 82 5 -3 9 -16 9 -30 0 -17 -5 -24 -20
-24 -11 0 -20 -2 -20 -4 0 -2 -3 -11 -6 -20 -9 -23 19 -20 34 4 7 11 17 20 22
20 22 0 8 -39 -25 -73 -19 -20 -35 -43 -35 -52 0 -8 -7 -15 -16 -15 -16 0 -52
-29 -37 -31 4 0 -3 -5 -16 -10 -17 -7 -21 -13 -14 -20 17 -17 50 -1 73 37 12
18 25 34 30 34 5 0 12 9 15 20 4 11 19 27 35 35 l29 15 -11 -31 c-6 -17 -19
-36 -29 -42 -11 -7 -19 -16 -19 -21 0 -5 -7 -16 -15 -25 -56 -62 -56 -61 -39
-61 16 0 104 86 104 102 0 4 5 8 10 8 16 0 12 -27 -5 -34 -8 -3 -15 -11 -15
-18 0 -7 -11 -26 -25 -42 -30 -35 -31 -46 -5 -46 13 0 20 -7 20 -19 0 -11 4
-22 10 -26 11 -7 3 -33 -17 -56 -7 -9 -11 -18 -8 -21 3 -3 -3 -21 -13 -39 -14
-26 -16 -38 -8 -51 7 -12 7 -39 -2 -95 -18 -111 -19 -118 -22 -118 -1 0 -4
-15 -7 -34 -2 -19 -11 -45 -20 -57 -8 -13 -13 -33 -10 -44 3 -11 2 -20 -3 -20
-10 0 -31 -81 -24 -92 3 -4 -1 -11 -10 -14 -9 -4 -13 -16 -11 -35 2 -16 -1
-29 -6 -29 -6 0 -8 -4 -4 -9 3 -5 0 -13 -6 -16 -5 -4 -8 -14 -5 -22 4 -10 1
-13 -13 -8 -14 4 -23 0 -31 -15 -7 -13 -7 -20 0 -20 5 0 10 6 10 13 0 8 4 7
10 -3 13 -20 13 -33 0 -25 -16 10 -24 -23 -10 -40 9 -10 9 -15 1 -15 -6 0 -11
5 -11 11 0 8 -4 8 -15 -1 -12 -10 -17 -8 -26 13 -14 30 -39 44 -39 21 0 -8 5
-12 10 -9 6 3 10 1 10 -4 0 -16 -20 -13 -26 4 -4 8 -10 12 -15 9 -6 -3 -7 5
-3 20 6 27 1 30 -38 27 -10 -1 -18 4 -18 13 0 9 -5 16 -11 16 -5 0 -8 4 -5 8
3 5 -1 9 -10 9 -10 0 -12 -7 -8 -21 4 -15 3 -17 -4 -7 -5 7 -15 11 -21 7 -7
-5 -9 -1 -5 8 3 9 1 16 -5 16 -6 0 -11 7 -11 15 0 9 -10 15 -26 15 -20 0 -25
4 -20 16 8 21 -4 40 -14 23 -7 -10 -12 -10 -23 0 -11 8 -17 9 -22 1 -8 -12
-25 -4 -25 13 0 8 3 8 9 -2 7 -11 10 -11 17 0 4 7 3 14 -4 17 -7 2 -12 10 -12
18 0 8 -5 14 -11 14 -5 0 -8 -4 -4 -9 3 -5 1 -12 -5 -16 -5 -3 -10 1 -10 9 0
19 -12 20 -29 4 -10 -11 -11 -10 -6 3 4 10 1 20 -5 24 -8 5 -7 11 2 23 12 14
10 14 -9 3 -19 -10 -23 -9 -23 4 0 9 -5 13 -10 10 -6 -3 -13 1 -16 9 -3 9 -10
13 -15 10 -5 -3 -9 2 -9 11 0 11 -5 15 -15 11 -8 -3 -15 -2 -15 3 0 5 -11 12
-25 15 -14 4 -23 11 -20 16 3 6 -1 10 -9 10 -9 0 -16 7 -16 16 0 8 -5 12 -10
9 -6 -4 -8 -11 -5 -16 3 -5 -1 -6 -9 -3 -9 3 -16 13 -16 21 0 11 -7 14 -25 11
-17 -4 -25 -1 -25 9 0 15 -39 33 -57 26 -7 -3 -13 0 -13 6 0 6 -7 11 -15 11
-8 0 -15 5 -15 10 0 6 -7 10 -15 10 -8 0 -15 4 -15 8 0 5 -16 13 -35 19 -19 6
-35 9 -35 7 0 -3 98 -103 218 -222 299 -300 622 -634 633 -654 8 -14 7 -75 -1
-98 -1 -3 -3 -25 -4 -50 -1 -25 -9 -59 -17 -76 -20 -44 -65 -94 -83 -94 -9 0
-16 -6 -16 -14 0 -8 -8 -13 -17 -11 -10 1 -24 -2 -31 -8 -9 -7 -17 -6 -25 2
-9 10 -8 11 6 6 9 -4 17 -3 17 2 0 5 -14 14 -31 20 -29 11 -30 14 -18 30 9 11
10 14 2 9 -7 -4 -22 2 -34 13 -12 11 -26 18 -31 15 -4 -3 -8 0 -8 6 0 6 -4 8
-10 5 -6 -4 -10 5 -10 19 0 14 -4 26 -10 26 -5 0 -7 -7 -4 -15 4 -9 0 -15 -9
-15 -8 0 -18 -6 -20 -12 -3 -8 -6 -6 -6 4 -1 18 -31 14 -31 -4 0 -5 5 -6 12
-2 7 5 8 3 3 -6 -6 -10 -12 -9 -24 6 -19 24 -31 25 -51 6 -9 -10 -15 -11 -18
-3 -2 6 -16 10 -30 10 -24 -2 -25 -2 -4 -6 12 -2 20 -9 17 -14 -4 -5 0 -9 7
-9 8 0 9 -3 3 -8 -5 -4 -18 -17 -29 -29 -16 -20 -17 -25 -5 -39 13 -16 12 -16
-9 -5 -23 12 -23 13 -6 32 9 10 13 19 8 19 -5 0 -2 5 6 10 11 7 2 10 -32 10
-26 0 -50 5 -54 11 -4 8 -9 7 -16 -2 -8 -11 -9 -11 -5 1 2 8 0 24 -6 35 -7 15
-2 13 18 -7 15 -16 31 -28 36 -28 11 0 23 21 25 43 4 52 5 53 14 32 5 -13 9
-14 9 -5 0 8 -4 24 -9 35 -8 19 -9 19 -9 1 -1 -16 -4 -17 -13 -8 -7 7 -16 12
-22 12 -5 0 -2 -6 8 -13 18 -13 19 -46 1 -59 -14 -11 -37 -10 -31 1 3 5 -1 11
-9 15 -8 3 -15 12 -15 20 0 8 -13 19 -30 25 -16 5 -30 16 -30 23 0 9 3 9 8 2
13 -20 37 -21 55 -2 9 10 17 21 18 26 1 4 4 6 8 5 14 -3 7 42 -8 54 -14 10
-12 11 10 9 20 -2 25 1 25 18 -1 12 5 20 11 19 8 -2 12 7 11 22 -1 14 -3 25
-4 25 -7 0 -42 -39 -47 -52 -3 -10 -17 -18 -29 -18 -19 0 -20 -2 -8 -10 9 -6
10 -10 3 -10 -21 0 -54 43 -47 62 4 13 1 16 -10 12 -9 -3 -16 -2 -16 4 0 6 6
13 13 15 9 4 9 6 -1 6 -16 1 -28 -29 -16 -38 15 -10 36 -52 30 -59 -3 -3 -6
-1 -6 5 0 6 -7 13 -15 17 -13 4 -12 1 2 -22 l17 -27 -22 22 c-21 21 -59 22
-46 1 4 -6 -3 -5 -15 2 -12 6 -25 18 -28 26 -3 7 -9 12 -13 9 -5 -3 -6 5 -2
17 5 20 3 21 -10 10 -13 -10 -15 -9 -10 13 3 18 0 25 -12 25 -9 0 -16 7 -16
16 0 8 -4 13 -9 10 -5 -4 -12 0 -14 6 -3 8 -6 6 -6 -5 -1 -15 -3 -16 -15 -5
-8 7 -12 16 -9 21 2 4 -1 7 -6 7 -6 0 -11 -4 -11 -10 0 -5 -7 -10 -15 -10 -8
0 -15 6 -15 13 0 8 -3 7 -9 -3 -6 -8 -7 -18 -5 -22 3 -4 0 -8 -5 -8 -6 0 -12
8 -12 18 -1 16 -2 16 -6 0 -5 -18 -23 -25 -23 -9 0 5 -7 11 -14 14 -10 4 -13
1 -10 -8 4 -10 0 -12 -15 -8 -11 3 -19 9 -16 13 3 4 -2 13 -10 20 -8 7 -15 9
-15 5 0 -4 -6 -2 -14 4 -7 6 -22 8 -32 4 -18 -7 -18 -6 -1 11 20 21 21 24 5
22 -7 0 -13 4 -13 9 0 6 4 9 9 7 5 -2 4 4 -3 12 -12 14 -15 14 -36 0 -22 -14
-24 -14 -30 6 -5 16 -10 19 -18 11 -16 -16 -27 -14 -21 4 4 9 0 15 -10 15 -9
0 -16 7 -16 16 0 10 -6 14 -15 10 -8 -3 -15 -1 -15 4 0 6 -7 10 -15 10 -14 0
-39 34 -40 54 0 5 -7 11 -15 13 -13 4 -13 3 0 -6 8 -6 10 -11 4 -11 -14 0 -55
35 -48 42 2 3 -3 5 -13 5 -41 0 -54 4 -48 13 3 6 -1 10 -10 10 -9 0 -13 4 -10
10 4 7 -2 7 -19 0 -21 -8 -24 -7 -19 8 3 9 3 14 -2 10 -4 -4 -14 -1 -22 7 -8
8 -26 15 -40 15 -19 0 -24 4 -19 16 8 21 -2 36 -17 27 -7 -4 -21 -8 -32 -10
-11 -1 -14 1 -7 3 17 8 15 21 -3 21 -8 0 -15 -7 -15 -16 0 -13 -4 -12 -18 5
-9 11 -30 21 -45 22 -16 1 -35 9 -43 17 -9 8 -18 15 -22 16 -62 6 -127 16
-127 19 0 0 -22 3 -49 5 -28 3 -66 10 -85 17 -20 6 -40 13 -46 13 -5 1 -12 3
-15 5 -9 5 -55 11 -83 10 -15 0 -36 4 -47 10 -13 7 -21 7 -25 0 -5 -8 -11 -8
-20 0 -8 7 -15 7 -19 1 -3 -5 7 -12 24 -16 16 -4 32 -11 35 -16 4 -5 13 -9 22
-9 29 0 179 -109 270 -197 50 -48 102 -98 115 -110 60 -57 98 -100 108 -123
10 -23 10 -23 6 -2 -3 15 0 22 7 19 7 -2 11 -12 9 -21 -2 -9 1 -16 5 -15 18 4
41 -14 36 -27 -3 -8 0 -14 6 -14 6 0 11 5 11 12 0 6 9 0 21 -13 11 -13 25 -24
31 -24 6 0 12 -7 14 -16 1 -10 12 -27 24 -39 16 -16 19 -24 10 -30 -9 -5 -9
-9 -1 -14 6 -4 15 -5 20 -1 5 3 12 1 16 -5 3 -5 -1 -10 -10 -10 -9 0 -13 -5
-10 -10 4 -6 11 -8 16 -5 5 4 9 2 9 -4 0 -5 -5 -13 -10 -16 -8 -5 -7 -11 1
-21 12 -14 3 -19 -29 -15 -7 1 -12 -2 -11 -6 4 -24 -3 -43 -16 -43 -8 0 -15
-7 -15 -16 0 -9 -5 -12 -12 -8 -6 4 0 -14 15 -40 15 -26 23 -54 20 -63 -4 -11
-2 -14 5 -9 7 4 10 -3 9 -21 -1 -20 3 -29 17 -31 11 -3 16 0 11 7 -3 6 -12 8
-18 4 -7 -4 -6 0 2 10 7 9 18 17 24 17 6 0 7 -3 4 -6 -10 -11 12 -44 31 -45 9
-1 1 -5 -18 -9 l-35 -7 30 -2 c17 0 36 4 43 11 9 9 12 8 12 -4 0 -22 18 -32
33 -20 8 7 16 6 24 -3 9 -10 8 -14 -8 -18 -26 -7 -24 -26 4 -37 20 -8 19 -9
-8 -8 -16 1 -38 10 -49 21 -15 15 -20 16 -27 5 -7 -10 -9 -9 -9 4 0 9 8 22 18
27 13 8 14 10 2 10 -8 0 -24 -6 -34 -14 -28 -21 -50 -19 -42 2 6 14 3 14 -16
-3 -13 -12 -28 -20 -35 -17 -6 2 -14 -1 -18 -6 -3 -6 -12 -11 -18 -11 -7 0 -6
4 3 10 13 8 12 10 -3 10 -17 0 -17 1 -3 16 9 8 13 20 10 26 -4 6 -9 6 -13 2
-3 -5 -22 -10 -41 -11 -22 -1 -30 1 -21 7 8 4 20 6 28 3 7 -3 13 0 13 6 0 6
-3 10 -7 10 -19 -3 -33 2 -33 11 0 6 8 10 18 8 10 -2 16 2 14 11 -2 8 2 17 8
21 7 4 1 9 -14 12 -21 4 -24 3 -15 -9 10 -11 8 -12 -6 -7 -10 4 -21 1 -27 -7
-7 -10 -8 -8 -3 8 5 18 3 22 -10 17 -10 -4 -15 -14 -12 -25 3 -11 1 -19 -4
-19 -5 0 -9 5 -9 10 0 6 -5 10 -11 10 -5 0 -7 -5 -4 -10 4 -6 -8 -13 -25 -16
-21 -5 -29 -11 -26 -20 3 -8 1 -14 -4 -14 -6 0 -10 6 -10 13 0 8 -7 14 -15 14
-8 0 -12 -4 -9 -9 3 -4 -3 -9 -13 -9 -17 -1 -17 -2 0 -6 29 -7 10 -20 -23 -15
l-30 4 21 19 c17 15 19 22 10 33 -10 11 -8 15 6 19 11 3 5 5 -12 6 -17 0 -37
-5 -45 -11 -7 -7 -2 2 13 20 15 19 25 38 21 43 -6 11 8 12 22 2 5 -5 4 -2 -2
6 -9 10 -9 20 1 40 35 71 55 124 50 129 -3 3 -5 0 -5 -6 0 -7 -5 -12 -10 -12
-13 0 -60 -49 -60 -62 0 -5 -4 -6 -10 -3 -5 3 -10 2 -10 -3 0 -6 -7 -13 -16
-16 -14 -5 -15 -4 -4 9 17 21 5 31 -15 12 -8 -9 -30 -21 -49 -28 -22 -8 -32
-17 -29 -26 3 -7 0 -13 -6 -13 -6 0 -11 7 -11 16 0 8 -5 12 -11 9 -6 -4 -8
-13 -5 -21 3 -8 1 -14 -5 -14 -6 0 -7 -5 -3 -12 5 -7 3 -8 -6 -3 -9 6 -12 4
-8 -7 4 -8 2 -21 -4 -29 -8 -11 -9 -10 -4 4 3 10 0 20 -9 23 -7 3 -12 11 -9
19 7 16 -23 27 -50 19 -17 -6 -19 -5 -9 8 11 12 7 14 -23 12 -19 -2 -39 -6
-44 -9 -5 -3 -12 6 -16 20 -7 29 -8 29 -36 14 -15 -8 -19 -8 -14 0 4 6 2 11
-4 11 -6 0 -9 4 -6 9 3 5 -1 11 -9 14 -10 4 -12 1 -8 -11 6 -15 5 -15 -10 -3
-9 7 -17 10 -17 5 0 -5 -5 -2 -10 6 -9 13 -10 13 -10 0 -1 -8 -8 -3 -16 13
-11 21 -20 26 -39 23 -14 -3 -27 0 -31 5 -3 6 -12 5 -22 -3 -13 -11 -14 -11
-8 1 7 10 4 12 -12 7 -14 -5 -26 1 -41 20 -12 15 -21 23 -21 19 0 -4 -6 -3
-13 3 -7 6 -25 9 -39 7 -14 -3 -46 1 -72 9 -42 13 -46 13 -47 -2 0 -14 -2 -14
-8 1 -4 10 -10 18 -14 17 -4 -1 -20 -5 -37 -10 -17 -5 -32 -5 -35 1 -11 16
-27 10 -21 -8 4 -12 -1 -9 -12 6 -14 18 -26 23 -46 19 -14 -3 -26 -1 -26 4 0
10 -60 5 -79 -6 -6 -4 -11 -2 -11 3 0 6 -12 11 -27 11 -26 0 -26 -1 -7 -15 16
-14 14 -13 -15 0 -18 9 -30 12 -27 7 9 -14 -22 -23 -31 -9 -13 20 -42 17 -38
-4 2 -10 -3 -23 -11 -30 -8 -6 -14 -8 -15 -3 0 5 -5 -2 -11 -16 -6 -14 -10
-28 -10 -32 1 -4 -4 -5 -11 -3 -32 11 -87 14 -92 5 -3 -6 0 -10 7 -10 7 -1 2
-7 -12 -16 l-25 -15 25 7 25 6 -24 -18 c-22 -16 -24 -16 -33 0 -5 9 -18 16
-28 16 -20 0 -44 -32 -33 -44 3 -3 1 -6 -5 -6 -6 0 -9 -7 -6 -15 4 -10 0 -13
-15 -10 -14 3 -21 -1 -21 -12 0 -10 6 -13 16 -9 14 5 15 4 4 -9 -12 -14 -15
-14 -35 5 -24 23 -45 26 -46 8 0 -10 -2 -10 -6 0 -9 22 -19 13 -17 -16 1 -15
-7 -38 -17 -51 l-19 -23 0 21 c0 13 -4 19 -10 16 -6 -4 -8 -11 -5 -16 4 -5 2
-9 -4 -9 -6 0 -9 -6 -7 -12 1 -7 1 -10 -1 -5 -3 4 -13 7 -23 7 -10 0 -22 5
-25 10 -3 6 -12 10 -18 10 -7 0 -6 -4 3 -10 12 -7 12 -10 1 -10 -7 0 -11 -6
-8 -14 4 -10 1 -13 -7 -10 -8 3 -12 15 -9 27 4 20 3 21 -7 4 -9 -15 -19 -17
-46 -12 -23 4 -34 2 -34 -6 0 -8 -5 -7 -16 2 -9 7 -29 12 -44 11 -16 -2 -31 1
-34 6 -3 5 -17 7 -31 4 -14 -2 -25 0 -25 7 0 5 -6 9 -12 7 -7 -3 -26 -7 -42
-11 -24 -5 -28 -3 -22 11 5 14 4 15 -9 4 -8 -7 -15 -9 -15 -4 0 5 -5 2 -10 -6
-8 -12 -10 -10 -10 8 0 13 -4 21 -10 17 -5 -3 -7 -12 -4 -20 7 -16 -33 -18
-53 -2 -9 7 -13 5 -13 -7 0 -9 8 -16 17 -16 13 0 14 -3 6 -11 -14 -14 -57 12
-45 27 4 5 -5 -1 -19 -13 -30 -27 -39 -29 -39 -8 0 10 -10 15 -31 15 -36 0
-72 17 -64 31 11 16 -7 10 -20 -8 -11 -15 -15 -15 -29 -4 -9 7 -16 20 -16 28
0 13 -3 13 -15 3 -9 -7 -19 -10 -22 -6 -4 4 -1 11 7 16 9 6 10 10 3 10 -6 0
-14 -4 -17 -9 -10 -15 -85 -18 -90 -4 -3 7 -16 13 -28 14 -22 0 -22 1 -3 8 14
6 4 9 -34 9 -55 1 -74 8 -54 20 8 5 4 14 -13 29 -13 12 -24 19 -24 15 0 -3 -7
3 -16 14 -8 10 -12 13 -8 5 4 -8 2 -12 -5 -10 -7 3 -12 8 -11 12 0 4 -7 15
-15 24 -30 30 -45 59 -40 81 2 13 -1 21 -8 19 -7 -1 -11 6 -11 16 1 9 -2 17
-7 17 -5 0 -5 7 -2 17 5 11 3 14 -6 9 -9 -6 -12 -1 -11 15 3 39 0 60 -7 56 -5
-3 -9 28 -9 69 -1 41 2 72 6 69 5 -3 11 -1 15 5 3 5 -1 10 -10 10 -11 0 -15 6
-11 18 9 29 16 77 17 125 1 26 5 47 8 47 3 0 7 10 7 23 1 12 4 39 7 60 3 20 1
37 -4 37 -5 0 0 9 11 20 12 12 25 18 30 15 15 -10 24 23 10 39 -9 12 -8 20 5
40 10 14 14 26 10 26 -4 0 -2 7 5 15 6 8 9 19 5 25 -3 6 5 24 19 41 14 17 26
37 26 45 0 11 6 13 22 9 17 -6 20 -4 15 9 -7 17 43 76 62 76 5 0 12 11 15 25
7 29 93 100 153 127 23 10 43 22 45 26 4 11 228 124 298 152 122 48 199 61
385 66 206 6 470 36 565 64 72 21 204 68 462 164 299 111 558 184 818 232 74
13 189 42 255 64 255 84 288 86 456 21z m-12 -2374 c1 9 8 10 27 3 14 -6 30
-8 34 -5 5 3 13 -2 17 -10 10 -18 63 -31 63 -15 0 5 -4 10 -10 10 -5 0 -10 7
-10 15 0 14 3 13 24 -2 13 -10 19 -21 14 -24 -7 -4 -6 -14 1 -28 9 -15 9 -21
1 -21 -16 0 -40 -26 -40 -42 0 -7 -8 -21 -17 -30 -10 -8 -35 -34 -56 -57 -20
-22 -41 -41 -47 -41 -5 0 -12 -5 -16 -12 -5 -8 -2 -9 9 -5 30 11 26 -9 -5 -22
-20 -9 -26 -16 -18 -21 9 -6 9 -9 0 -15 -6 -4 -17 -2 -23 4 -15 15 -27 14 -27
-3 0 -8 -8 -13 -17 -11 -10 2 -24 4 -30 4 -7 1 -13 12 -13 26 0 18 5 25 19 25
11 0 23 9 26 20 4 12 11 17 18 13 7 -3 4 3 -6 14 -15 18 -17 25 -7 43 9 18 9
24 0 30 -7 5 -10 17 -7 30 4 17 2 20 -10 16 -13 -6 -14 -4 -3 10 9 10 10 18 4
22 -21 14 -22 40 -4 57 10 9 23 14 29 11 5 -4 12 -2 16 4 4 6 11 8 16 5 5 -4
9 -1 9 5 0 6 5 8 10 5 6 -3 10 0 11 7 0 7 4 4 9 -7 5 -11 9 -14 9 -8z m696
-937 c4 6 14 10 23 9 10 -1 25 1 35 6 12 5 22 2 32 -11 20 -28 4 -37 -67 -38
-36 -1 -69 -6 -77 -14 -10 -10 -16 -10 -27 -1 -8 7 -17 9 -21 6 -3 -4 -13 -1
-21 6 -13 10 -15 9 -10 -3 4 -12 -4 -16 -43 -18 -27 -1 -52 -2 -56 -3 -26 -4
-53 3 -73 21 -19 16 -21 22 -10 35 10 12 23 14 59 9 62 -10 141 -11 141 -2 0
13 65 13 87 0 15 -9 23 -10 28 -2z m-3665 -302 c0 7 5 10 10 7 6 -3 10 0 10 7
1 8 6 6 15 -6 8 -11 15 -14 15 -8 0 7 9 12 20 12 11 0 20 -5 20 -11 0 -5 -4
-8 -9 -4 -5 3 -12 2 -15 -3 -3 -5 17 -8 45 -8 27 1 53 -3 57 -9 8 -11 27 -17
60 -17 19 0 20 -3 10 -16 -12 -13 -10 -14 10 -3 13 7 31 9 40 5 9 -4 22 -8 27
-9 6 -1 15 -3 20 -5 21 -5 31 -7 48 -8 10 -1 15 -6 12 -12 -3 -5 -2 -10 4 -10
6 0 8 -7 4 -15 -7 -19 -84 -16 -121 4 -12 6 -27 9 -32 6 -6 -3 -10 -1 -10 5 0
7 -6 10 -12 7 -7 -2 -29 2 -49 10 -20 8 -40 13 -45 12 -20 -3 -45 1 -41 9 8
11 -57 9 -65 -3 -4 -5 -8 0 -8 12 0 16 -6 22 -17 21 -38 -3 -51 2 -48 20 2 9
4 24 4 32 1 10 7 7 21 -10 11 -14 20 -19 20 -12z m500 -110 c3 -4 17 -6 30 -3
13 2 29 0 36 -6 7 -6 19 -7 25 -3 8 4 9 3 5 -4 -4 -7 -1 -12 8 -12 9 0 16 6
16 13 1 6 7 -2 14 -19 16 -35 33 -50 33 -29 0 8 -5 11 -10 8 -6 -3 -7 -2 -4 3
3 6 22 11 42 12 23 2 34 -1 30 -8 -3 -5 2 -10 12 -10 11 0 24 -5 31 -12 9 -9
12 -8 12 5 0 9 5 17 10 17 6 0 10 -4 10 -8 0 -5 6 -17 14 -27 12 -17 16 -17
31 -5 10 8 19 10 23 4 4 -5 16 -9 27 -9 11 0 31 -5 45 -12 29 -15 64 -18 42
-4 -9 5 -3 8 17 7 28 -1 29 -2 14 -13 -22 -17 1 -17 30 -1 20 10 21 10 8 -5
-12 -15 -11 -17 3 -17 9 0 16 6 16 13 1 7 7 4 15 -7 12 -16 17 -17 30 -6 14
11 18 11 25 1 4 -8 13 -10 19 -7 6 4 11 3 11 -3 0 -5 8 -10 18 -11 56 -3 72
-6 72 -15 0 -5 4 -4 9 4 5 7 14 10 21 6 9 -6 9 -10 -1 -17 -11 -7 -9 -8 6 -6
11 2 26 -3 33 -12 11 -13 11 -13 6 3 -8 23 12 22 29 -3 8 -11 17 -17 20 -13 4
3 7 -1 7 -10 0 -10 5 -17 10 -17 13 0 13 -18 0 -33 -6 -7 -18 -21 -26 -32 -9
-11 -12 -14 -8 -6 5 11 3 13 -9 8 -11 -4 -17 -1 -17 8 0 8 -4 15 -10 15 -5 0
-10 5 -10 11 0 6 -7 18 -16 27 -15 15 -16 14 -10 -8 3 -14 3 -19 0 -12 -3 6
-11 9 -17 5 -6 -4 -8 0 -4 9 4 11 0 15 -11 13 -9 -1 -25 4 -34 12 -9 8 -22 12
-27 8 -6 -3 -11 -1 -11 6 0 9 -3 9 -14 0 -17 -14 -45 -11 -63 6 -7 6 -21 9
-31 6 -10 -2 -24 3 -31 11 -8 9 -18 16 -23 16 -6 0 -4 -7 3 -17 13 -14 12 -15
-6 -5 -55 30 -85 40 -85 29 0 -7 -7 -3 -15 7 -8 11 -15 14 -15 7 0 -7 -4 -10
-10 -6 -5 3 -7 12 -4 19 4 11 -3 12 -35 6 -24 -4 -41 -3 -41 2 0 5 -8 8 -17 7
-39 -3 -54 1 -47 14 5 8 2 7 -10 -2 -12 -10 -20 -11 -28 -3 -6 6 -17 8 -25 5
-13 -5 -13 -3 -3 18 12 21 11 23 -2 11 -20 -16 -64 -12 -79 9 -9 13 -17 14
-41 5 -21 -8 -31 -8 -36 1 -4 6 -16 11 -27 10 -12 -1 -19 3 -17 11 2 10 -2 11
-15 4 -11 -7 -21 -6 -30 3 -7 7 -18 15 -24 17 -9 3 -8 9 1 25 11 18 17 19 44
9 17 -6 33 -14 36 -18z m3203 -304 c-3 -8 1 -14 11 -14 9 0 16 -5 16 -11 0 -6
-7 -9 -15 -5 -16 6 -16 -14 0 -26 6 -5 5 -8 -2 -8 -7 0 -13 -7 -13 -16 0 -12
-7 -15 -25 -12 -14 3 -28 1 -31 -3 -3 -5 -20 -10 -37 -10 -27 -2 -28 -2 -7 -6
37 -7 46 -20 9 -15 -18 3 -29 1 -26 -5 8 -13 -46 -12 -55 1 -5 7 -8 4 -8 -6 0
-15 -4 -16 -43 -4 -41 12 -43 12 -70 -16 -33 -33 -48 -32 -64 2 -12 24 -12 25
-13 3 0 -21 -20 -35 -20 -15 0 5 -15 9 -32 9 -18 0 -27 -2 -20 -4 17 -6 15
-23 -3 -23 -8 0 -15 7 -15 16 0 8 -5 12 -10 9 -6 -4 -8 -11 -5 -16 3 -5 -1 -6
-9 -3 -14 5 -14 8 -1 21 8 8 19 11 25 8 5 -3 10 -2 10 4 0 6 7 8 16 4 13 -5
15 -1 10 18 -3 13 -3 18 0 10 5 -11 8 -11 15 0 7 11 9 10 9 -5 0 -12 5 -16 16
-12 9 3 22 6 30 6 7 0 11 6 8 14 -3 8 0 17 7 22 7 4 10 3 6 -2 -3 -6 -1 -16 4
-24 8 -13 12 -12 27 5 9 11 24 21 32 21 8 1 24 5 35 9 16 6 15 3 -5 -14 -14
-11 -20 -21 -14 -21 18 0 47 37 34 45 -5 3 -7 11 -4 17 5 7 10 4 15 -9 4 -11
16 -22 27 -25 16 -4 18 -1 14 20 l-5 26 24 -23 c23 -21 24 -22 27 -3 2 11 14
30 28 43 20 19 24 20 24 6 0 -9 -6 -17 -14 -17 -15 0 -32 -37 -22 -47 3 -4 6
-2 6 4 0 5 11 22 25 37 l25 26 20 -20 c26 -26 26 -11 0 17 -20 22 -15 28 21
30 12 1 16 -3 12 -13z"/>
<path d="M6430 18510 c-8 -6 -28 -9 -45 -8 -40 2 -75 -18 -75 -43 0 -11 -3
-18 -7 -16 -5 2 -20 -9 -35 -25 -27 -28 -27 -28 -4 -22 39 9 44 -39 8 -75 -9
-10 -10 -17 -2 -25 7 -7 17 -3 33 15 33 38 90 77 105 72 6 -3 12 0 12 7 0 6
13 16 29 21 18 7 31 19 34 34 2 14 1 23 -2 21 -3 -2 -17 0 -30 5 -19 8 -21 12
-11 24 16 19 10 27 -10 15z"/>
</g>
</svg>
